<?xml version="1.0" encoding="utf-8"?>
<svg xmlns="http://www.w3.org/2000/svg" id="canvas">
<symbol id="circle-down" viewBox="0 0 32 32"><title>circle-down</title><path d="M32 16c0-8.837-7.163-16-16-16S0 7.163 0 16s7.163 16 16 16 16-7.163 16-16zM3 16C3 8.82 8.82 3 16 3s13 5.82 13 13-5.82 13-13 13S3 23.18 3 16z"/><path d="M9.914 11.086l-2.829 2.829 8.914 8.914 8.914-8.914-2.828-2.828-6.086 6.086z"/>
</symbol>
<symbol id="circle-up" viewBox="0 0 32 32"><title>circle-up</title><path d="M0 16c0 8.837 7.163 16 16 16s16-7.163 16-16S24.837 0 16 0 0 7.163 0 16zm29 0c0 7.18-5.82 13-13 13S3 23.18 3 16 8.82 3 16 3s13 5.82 13 13z"/><path d="M22.086 20.914l2.829-2.829-8.914-8.914-8.914 8.914 2.828 2.828 6.086-6.086z"/>
</symbol>
<symbol id="envelop" viewBox="0 0 32 32"><title>envelop</title><path d="M29 4H3C1.35 4 0 5.35 0 7v20c0 1.65 1.35 3 3 3h26c1.65 0 3-1.35 3-3V7c0-1.65-1.35-3-3-3zM12.461 17.199L4 23.789V8.113l8.461 9.086zM5.512 8h20.976L16 15.875 5.512 8zm7.278 9.553L16 21l3.21-3.447L25.79 26H6.211l6.58-8.447zm6.749-.354L28 8.113v15.676l-8.461-6.59z"/>
</symbol>
<symbol id="github" viewBox="0 0 32 32"><title>github</title><path d="M16 .395c-8.836 0-16 7.163-16 16 0 7.069 4.585 13.067 10.942 15.182.8.148 1.094-.347 1.094-.77 0-.381-.015-1.642-.022-2.979-4.452.968-5.391-1.888-5.391-1.888-.728-1.849-1.776-2.341-1.776-2.341-1.452-.993.11-.973.11-.973 1.606.113 2.452 1.649 2.452 1.649 1.427 2.446 3.743 1.739 4.656 1.33.143-1.034.558-1.74 1.016-2.14-3.554-.404-7.29-1.777-7.29-7.907 0-1.747.625-3.174 1.649-4.295-.166-.403-.714-2.03.155-4.234 0 0 1.344-.43 4.401 1.64a15.353 15.353 0 0 1 4.005-.539c1.359.006 2.729.184 4.008.539 3.054-2.07 4.395-1.64 4.395-1.64.871 2.204.323 3.831.157 4.234 1.026 1.12 1.647 2.548 1.647 4.295 0 6.145-3.743 7.498-7.306 7.895.574.497 1.085 1.47 1.085 2.963 0 2.141-.019 3.864-.019 4.391 0 .426.288.925 1.099.768C27.421 29.457 32 23.462 32 16.395c0-8.837-7.164-16-16-16z"/>
</symbol>
<symbol id="images" viewBox="0 0 36 32"><title>images</title><path d="M34 4h-2V2c0-1.1-.9-2-2-2H2C.9 0 0 .9 0 2v24c0 1.1.9 2 2 2h2v2c0 1.1.9 2 2 2h28c1.1 0 2-.9 2-2V6c0-1.1-.9-2-2-2zM4 6v20H2.004L2 25.996V2.003l.004-.004h27.993l.004.004v1.996h-24c-1.1 0-2 .9-2 2zm30 23.996l-.004.004H6.003l-.004-.004V6.003l.004-.004h27.993l.004.004v23.993z"/><path d="M30 11a3 3 0 1 1-6 0 3 3 0 0 1 6 0zm2 17H8v-4l7-12 8 10h2l7-6z"/>
</symbol>
<symbol id="profile" viewBox="0 0 32 32"><title>profile</title><g class="svg__profile"><g class="profile--avatar"><path d="M1.18 18.5h13.563s-.01-3.56-5.02-3.56c-.07 0-.035-1.318-.035-1.318s2.563-1.317 2.955-5.019c.391-3.702-2.385-5.375-2.385-5.375s-5.98-2.1-6.408 6.906c-.427 9.006 2.563 3.524 2.563 3.524v1.317s-4.272.107-5.233 3.524z" fill="#deaa87"/><path d="M12.682 15.587c-.226-1.629.896-2.75 1.253-3.23.19-.254.156-.62.12-.923.225.346.286.967-.001 1.318-.092.112.076.258.167.144.67-.838.066-1.227.365-1.864 1.45-3.094-.962-6.233-1.516-7.547C12.232 1.498 11.287.142 8.36.481 5.818-.243 3 .263 1.86 5.113 1.563 6.369-.171 8.735.57 10.575c.06.15.219.068.212-.074-.023-.494.009-1.267.256-1.958a5.96 5.96 0 0 0-.028 1.753c-.101.272-.773 2.225.582 2.992.116.065.242-.092.127-.183a2.043 2.043 0 0 1-.411-1.126c.338.52.802 1.072 1.644 1.65.202.545.232 1.409.18 2.112-1.076.615-1.749 1.512-2.009 2.686-.031.144.184.192.216.048.238-1.076.825-1.896 1.77-2.473-.034.3-.08.556-.134.716-.201.603-2.441 1.592.117 4.272.099.103.257-.046.166-.15-.267-.555-.364-1.026-.294-1.429.338.577.96 1.2 1.734 1.457.124.043.23-.157.074-.21-.452-.262-.702-.496-.808-.774.538.365 1.153.527 1.67.43.073-.013.143-.133.04-.2-.996-.648-1.146-1.632-.458-3.007.65-.267.914-1.113.994-2.044l.242-.029a.11.11 0 0 0 .1-.113l-.036-1.052c.556.348 1.096.537 1.537.537s.981-.19 1.537-.536l-.035 1.05a.11.11 0 0 0 .1.114c.112.011.22.025.328.039.079 1.174.479 1.89 1.19 2.099.306 2.11-1.231 2.754-1.41 2.82-.118.046-.08.228.045.214 1.113-.052 1.553-.453 1.969-.846-.045.384-.316 1.021-.92 1.31-.116.055-.056.233.071.206.858-.187 1.657-.729 1.572-1.819.116.276.154.662.102 1.1-.016.13.17.173.214.048.231-.676.187-1.258.146-1.73.443.223.753.576.557 1.703-.024.134.163.185.212.058.947-2.459-.584-2.381-1.003-4.39 1.103.583 1.78 1.453 2.04 2.629.031.141.248.101.215-.048-.283-1.277-1.055-2.225-2.301-2.84zm.293-6.377a1.974 1.974 0 0 1-.438.63c.09-.308.16-.629.21-.96.073.111.15.221.228.33zm-6.647 5.615l-.101.013a10.53 10.53 0 0 0-.008-1.167l.072.05zm-2.44-4.682c2.146-.917 3.44-5.996 3.893-6.336.475-.358 1.603-.042 1.705.278a.11.11 0 0 0 .18.047c.991-.918 1.37 2.033 2.897 4.459-.363 3.499-3.21 5.595-4.51 5.595-1.094 0-3.284-1.486-4.166-4.043zm5.89 4.682l.038-1.105a6.46 6.46 0 0 0 .214-.157c-.045.425-.07.864-.055 1.287-.066-.008-.13-.018-.197-.025z"/></g><path d="M16.149 6.524h13.285v2.228H16.149zm0 4.873h9.369v2.228h-9.369zm0 4.355h11.505v2.228H16.149zm-13.366 5.48H31v2.228H2.783zm0 4.487h21.596v2.228H2.783zM16.149 1.794h6.023v2.228h-6.023z" class="profile--text"/></g>
</symbol>
<symbol id="twitter" viewBox="0 0 32 32"><title>twitter</title><path d="M32 7.075a12.941 12.941 0 0 1-3.769 1.031 6.601 6.601 0 0 0 2.887-3.631 13.21 13.21 0 0 1-4.169 1.594A6.565 6.565 0 0 0 22.155 4a6.563 6.563 0 0 0-6.563 6.563c0 .512.056 1.012.169 1.494A18.635 18.635 0 0 1 2.23 5.195a6.56 6.56 0 0 0-.887 3.3 6.557 6.557 0 0 0 2.919 5.463 6.565 6.565 0 0 1-2.975-.819v.081a6.565 6.565 0 0 0 5.269 6.437 6.574 6.574 0 0 1-2.968.112 6.588 6.588 0 0 0 6.131 4.563 13.17 13.17 0 0 1-9.725 2.719 18.568 18.568 0 0 0 10.069 2.95c12.075 0 18.681-10.006 18.681-18.681 0-.287-.006-.569-.019-.85A13.216 13.216 0 0 0 32 7.076z"/>
</symbol></svg>