<?xml version="1.0" encoding="utf-8"?>
<svg xmlns="http://www.w3.org/2000/svg">
<symbol id="circle-down" viewBox="0 0 32 32"><title>circle-down</title><path d="M32 16c0-8.837-7.163-16-16-16S0 7.163 0 16s7.163 16 16 16 16-7.163 16-16zM3 16C3 8.82 8.82 3 16 3s13 5.82 13 13-5.82 13-13 13S3 23.18 3 16z"/><path d="M9.914 11.086l-2.829 2.829 8.914 8.914 8.914-8.914-2.828-2.828-6.086 6.086z"/>
</symbol>
<symbol id="circle-up" viewBox="0 0 32 32"><title>circle-up</title><path d="M0 16c0 8.837 7.163 16 16 16s16-7.163 16-16S24.837 0 16 0 0 7.163 0 16zm29 0c0 7.18-5.82 13-13 13S3 23.18 3 16 8.82 3 16 3s13 5.82 13 13z"/><path d="M22.086 20.914l2.829-2.829-8.914-8.914-8.914 8.914 2.828 2.828 6.086-6.086z"/>
</symbol>
<symbol id="envelop" viewBox="0 0 32 32"><title>envelop</title><path d="M29 4H3C1.35 4 0 5.35 0 7v20c0 1.65 1.35 3 3 3h26c1.65 0 3-1.35 3-3V7c0-1.65-1.35-3-3-3zM12.461 17.199L4 23.789V8.113l8.461 9.086zM5.512 8h20.976L16 15.875 5.512 8zm7.278 9.553L16 21l3.21-3.447L25.79 26H6.211l6.58-8.447zm6.749-.354L28 8.113v15.676l-8.461-6.59z"/>
</symbol>
<symbol id="github" viewBox="0 0 32 32"><title>github</title><path d="M16 .395c-8.836 0-16 7.163-16 16 0 7.069 4.585 13.067 10.942 15.182.8.148 1.094-.347 1.094-.77 0-.381-.015-1.642-.022-2.979-4.452.968-5.391-1.888-5.391-1.888-.728-1.849-1.776-2.341-1.776-2.341-1.452-.993.11-.973.11-.973 1.606.113 2.452 1.649 2.452 1.649 1.427 2.446 3.743 1.739 4.656 1.33.143-1.034.558-1.74 1.016-2.14-3.554-.404-7.29-1.777-7.29-7.907 0-1.747.625-3.174 1.649-4.295-.166-.403-.714-2.03.155-4.234 0 0 1.344-.43 4.401 1.64a15.353 15.353 0 0 1 4.005-.539c1.359.006 2.729.184 4.008.539 3.054-2.07 4.395-1.64 4.395-1.64.871 2.204.323 3.831.157 4.234 1.026 1.12 1.647 2.548 1.647 4.295 0 6.145-3.743 7.498-7.306 7.895.574.497 1.085 1.47 1.085 2.963 0 2.141-.019 3.864-.019 4.391 0 .426.288.925 1.099.768C27.421 29.457 32 23.462 32 16.395c0-8.837-7.164-16-16-16z"/>
</symbol>
<symbol id="images" viewBox="0 0 36 32"><title>images</title><path d="M34 4h-2V2c0-1.1-.9-2-2-2H2C.9 0 0 .9 0 2v24c0 1.1.9 2 2 2h2v2c0 1.1.9 2 2 2h28c1.1 0 2-.9 2-2V6c0-1.1-.9-2-2-2zM4 6v20H2.004L2 25.996V2.003l.004-.004h27.993l.004.004v1.996h-24c-1.1 0-2 .9-2 2zm30 23.996l-.004.004H6.003l-.004-.004V6.003l.004-.004h27.993l.004.004v23.993z"/><path d="M30 11a3 3 0 1 1-6 0 3 3 0 0 1 6 0zm2 17H8v-4l7-12 8 10h2l7-6z"/>
</symbol>
<symbol id="profile" viewBox="0 0 100 100"><defs><clipPath id="a"><path d="M129.46 651.2h10.618v-6.255H129.46z"/></clipPath></defs><g class="svg__profile"><g class="svg__profile"><path d="M52.629 43.525c-1.018 3.393-2.183 7.273-4.361 11.153-2.187 3.879-8.814 8.872-9.05 14.195-.491 11.415 15.74 16.84 22.287 18.783 6.547 1.935 8.73 2.132 9.457 4.946.727 2.81.132 7.509.132 7.509s5.511-3.01 7.069-5.307c3.343-4.944-.316-8.31-.316-8.31s-1.355 1.162.243 3.78c1.601 2.618 1.601 4.95 1.021 5.628-.58.68-2.619 2.81-2.619 2.81s10.114-2.857 8.144-11.056c-.334-1.406-1.256-.38 0 0 2.815.836 2.286 5.463 2.286 5.463s6.863-8.85-7.036-13.859c-1.323-.48-8.476-2.243-9.218-8.143-.412-3.27 1.992-3.554 2.43-7.55.568-5.172-6.864-4.082-9.723-8.952-.54-.93 2.15-1.454 0-3.974-2.59-3.04-3.546-2.798-7.256-4.596-3.708-1.794-3.49-2.52-3.49-2.52" fill="#4d1913"/><path d="M49.88 56.28v44.138H25.8c-.39-.185-.591-.251-.591-.251 0-6.564 1.128-11.462 2.767-15.08 2.704-5.972 6.774-8.53 9.409-9.61 1.517-.638 2.565-.755 2.565-.755h.12c.1-.017.217-.033.317-.068 1.22-.353 2.046-2.12 2.601-4.676.102-.454.19-.893.256-1.38.133-.808.25-1.665.338-2.576.049-.52.097-1.055.147-1.614.225-2.728.291-5.674.291-8.45 0 0 3.244.322 5.86.322" fill="#dcc5a1"/><path d="M74.635 100.172s-.221.068-.577.252H49.88V56.286h.052c2.615 0 5.87-.321 5.87-.321 0 2.774.071 5.692.29 8.382.049.536.104 1.074.152 1.597.103.924.206 1.8.337 2.607v.037c.052.367.119.703.184 1.041.507 2.475 1.253 4.293 2.337 4.897.08.033.162.083.25.1.169.069.356.101.54.101 0 0 7.447.895 11.753 9.896 1.756 3.668 2.99 8.679 2.99 15.55" fill="#edd9b4"/><g clip-path="url(#a)" opacity=".7" transform="matrix(1.256 0 0 -1.256 -119.35 882.211)"><path d="M140.07 647.84v-.015a6.2 6.2 0 0 0-5.312-2.879h-.024c-3.053.011-4.826 2.224-5.282 2.869.105.64.199 1.324.269 2.035.035.427.076.857.117 1.299a20.935 20.935 0 0 1 4.841-.63h.055a19.87 19.87 0 0 1 4.947.682c.038-.429.082-.858.12-1.272.082-.738.161-1.432.269-2.089" fill="#bc9f82"/></g><path d="M49.858 8.844C24.728 8.8 24.58 28.923 25.702 42.047c-1.725-3.079-6.823-1.936-6.405 2.996.4 4.721 7.606 6.865 7.503 6.344 2.057 10.69 13.903 16.624 23.058 17.47.063.007.132 0 .198.01V8.847c-.07 0-.135-.003-.198-.003" fill="#ccad8b"/><path d="M20.558 42.953c1.264-1.907 3.208-1.088 3.685-.663.506.457.91 1.058.596 2.188-.178.634-.882.683-.706 1.646.187 1.083.72 1.152 1.017 1.4.294.242.673.435.864.889.176.46.212.946.11 1.363-.199.783-1.396.16-2.205-.185-.525-.23-2.212-1.573-2.634-2.034-1.072-1.135-1.569-3.337-.727-4.604" fill="#bc9f82"/><path d="M49.983 8.844c25.13-.044 25.276 20.079 24.16 33.203 1.723-3.079 6.819-1.936 6.404 2.996-.4 4.721-7.605 6.865-7.502 6.344-2.057 10.69-13.9 16.624-23.062 17.47-.063.007-.132 0-.187.01V8.847c.059 0 .124-.003.187-.003" fill="#d9bf9f"/><path d="M79.463 42.953c-1.26-1.907-3.207-1.088-3.686-.663-.51.457-.906 1.058-.595 2.188.173.634.882.683.71 1.646-.187 1.083-.717 1.152-1.021 1.4-.294.242-.674.435-.86.889-.177.46-.214.946-.111 1.363.192.783 1.393.16 2.198-.185.532-.23 2.212-1.573 2.637-2.034 1.073-1.135 1.566-3.337.728-4.604" fill="#bc9f82"/><path d="M49.726 14.54c-8.392 0-14.535 2.31-18.253 6.861-5.191 6.358-4.996 16.069-3.075 23.04.58 2.131.882 7.875 1.29 9.983 1.808 9.428 12.8 14.45 20.038 14.45.067 0 .132-.007.195-.007V14.549c-.067 0-.125-.008-.195-.008" fill="#dcc5a1"/><path d="M67.94 21.412c-3.688-4.523-9.761-6.828-18.02-6.859v54.316c8.266-.088 18.145-5.588 19.843-14.442.405-2.108.706-7.851 1.29-9.983 1.91-6.95 2.098-16.651-3.112-23.032" fill="#edd9b4"/><path d="M54.145 60.356s-1.895 2.02-4.236 2.02c-2.337 0-4.123-1.98-4.123-1.98s1.786-.305 4.123-.305c2.341 0 4.236.265 4.236.265" fill="#b47070"/><path d="M51.114 59.42c-.66 0-1.19.413-1.205.917-.007-.504-.54-.917-1.194-.917-.665 0-3.039.936-3.039.936s2.315.24 2.98.24c.658 0 1.246.26 1.253-.226.012.49.493.3 1.146.3.67 0 3.09-.314 3.09-.314s-2.37-.936-3.031-.936" fill="#c17874"/><path d="M77.141 22.65c-.33-1.038-.672-2-1.02-2.927v-.398c0-3.917-3.201-8.99-8.29-13.919-5.092-4.927-8.3-3.915-12.517-3.771l-.033.08c-1.851-.43-11.808-2.56-17.735-.2-6.543 2.612-11.908 7.092-15.692 19.129-3.784 12.029-.676 21.89.059 26.093 2.322 13.319 13.472 21.752 13.472 21.752s-2.817-3.56-4.073-7.106c-.978-2.75-2.433-7.478-2.433-14.434 0-6.96 6.36-15.58 6.36-15.58s-2.936 5.407-3.513 11.353c-.584 5.944 2.491 10.542 2.491 10.542s-3.894-7.72 2.334-13.483a44.469 44.469 0 0 0 4.974-5.497c0 .004-.004.008-.004.013-1.561 4.554 1.576 8.381 1.576 8.381s-.057-5.84 3.193-7.826c7.918-4.835 9.174-6.837 10.291-10.728.15-.534.236-1.02.294-1.496l7.239 11.257c.337.492.891 1.32 1.534 2.389 1.875 3.121 4.468 8.234 4.468 12.68 0 6.963-1.458 11.687-2.435 14.436-1.256 3.549-4.075 7.106-4.075 7.106s11.155-8.432 13.476-21.75c.735-4.205 3.844-14.062.06-26.097" fill="#4d1913"/><path d="M68.537 77.312c-3.245-1.55-7.092-2.523-6.886-2.063 2.101 2.943 1.315 5.411.97 9.634-.536 6.57-4.82 4.965-12.786 4.889-7.964.076-12.249 1.68-12.785-4.889-.35-4.223-1.132-6.69.97-9.634.206-.46-3.638.514-6.885 2.063-3.244 1.54-5.887 3.655-5.887 3.655s2.43.799 3.425 3.775c.508 1.486.816 4.173.985 6.664.353 5.05 2.895 7.315 2.748 9.016h34.86c-.151-1.701 2.395-3.966 2.748-9.016.172-2.491.477-5.178.984-6.664.995-2.976 3.424-3.775 3.424-3.775s-2.641-2.114-5.885-3.655" fill="#fdfbf8"/><path d="M46.338 75.222c.374 5.704-2.12 12.166-2.682 14.022-.746 2.489-2.74 5.347-2.74 5.347s2.152.194 2.472.183c.32-.013 3.133.71 3.847-1.425.716-2.143 3.435-15.988 3.206-16.342-.223-.357-.881-1.785-.881-1.785z" fill="#d7d8dc"/><path d="M42.561 70.253c1.554.532 4.534 1.584 7.455 1.474 2.92-.114 7.601-1.061 7.601-1.061s2.124 2.468.338 3.474c-1.785 1.011-13.014 2.526-16.598-.18-.574-.433 1.204-3.707 1.204-3.707" fill="#434142"/><path d="M47.8 71.594c.287-.196 1.53 0 2.432 0 .905 0 1.265-.277 2.04 0 .771.274 1.252 2.438 1.252 2.773s.004 1.064-.359 1.103c-.368.033.007 2.066.058 2.952.992 15.441-1.308 19.329-1.785 19.606-.478.277-8.527.5-8.527.5s2.193-4.907 3.038-7.605c2.266-7.223 2.554-15.07 2.554-15.07s-.941.293-.941-.539c0-.834-.533-3.193.239-3.72" fill="#434142"/></g></g>
</symbol>
<symbol id="profile2" viewBox="0 0 32 32"><title>profile</title><g class="svg__profile"><path d="M25.601 27.577H5.676s.015-5.23 7.375-5.23c.103 0 .051-1.937.051-1.937s-3.765-1.934-4.34-7.373c-.575-5.439 3.503-7.896 3.503-7.896s8.785-3.085 9.414 10.145c.627 13.231-3.765 5.177-3.765 5.177v1.935s6.276.157 7.687 5.177z" fill="#eecfb4"/><path d="M8.704 23.297c.332-2.393-1.316-4.04-1.84-4.745-.28-.373-.23-.91-.177-1.356-.33.508-.42 1.42.001 1.936.135.165-.111.38-.245.212-.984-1.231-.097-1.803-.536-2.738C3.777 12.06 7.32 7.449 8.134 5.518c1.231-2.919 2.62-4.911 6.92-4.413 3.734-1.064 7.874-.32 9.548 6.805.437 1.845 2.984 5.321 1.896 8.024-.089.22-.322.1-.312-.109.034-.725-.013-1.86-.376-2.876a8.756 8.756 0 0 0 .041 2.575c.149.4 1.136 3.269-.855 4.396-.17.095-.355-.135-.186-.27a3.001 3.001 0 0 1 .603-1.653c-.496.764-1.178 1.575-2.415 2.424-.297.8-.34 2.07-.264 3.102 1.58.904 2.57 2.222 2.951 3.946.046.212-.27.283-.317.071-.35-1.58-1.212-2.785-2.6-3.633.05.44.117.817.196 1.052.296.886 3.587 2.339-.171 6.276-.146.151-.378-.068-.244-.22.392-.816.534-1.508.432-2.1-.497.848-1.41 1.763-2.548 2.14-.182.064-.338-.23-.109-.308.664-.385 1.032-.729 1.187-1.137-.79.536-1.693.774-2.453.632-.107-.02-.21-.196-.059-.294 1.464-.952 1.684-2.398.673-4.418-.955-.392-1.343-1.635-1.46-3.003l-.356-.042a.162.162 0 0 0-.147-.166l.053-1.546c-.816.512-1.61.79-2.258.79s-1.44-.28-2.258-.788l.052 1.542a.162.162 0 0 0-.147.168c-.165.016-.323.037-.482.057-.116 1.725-.704 2.777-1.748 3.084-.45 3.1 1.808 4.046 2.071 4.143.174.067.118.335-.066.314-1.635-.076-2.281-.665-2.893-1.243.067.564.465 1.5 1.352 1.925.17.08.082.342-.104.302-1.26-.274-2.435-1.07-2.31-2.672-.17.406-.226.973-.15 1.616.024.191-.25.254-.314.07-.34-.993-.275-1.848-.214-2.541-.651.328-1.107.846-.819 2.502.035.197-.24.272-.311.085-1.391-3.612.858-3.498 1.473-6.45-1.62.857-2.615 2.135-2.997 3.863-.045.207-.364.148-.316-.07.416-1.877 1.55-3.27 3.38-4.173zm-.43-9.368a2.9 2.9 0 0 1 .643.925 10.76 10.76 0 0 1-.309-1.41c-.107.163-.22.325-.335.485zm9.765 8.249l.148.019a15.47 15.47 0 0 0 .012-1.715l-.106.074zm3.584-6.879c-3.153-1.347-5.054-8.808-5.72-9.308-.697-.526-2.354-.061-2.504.409a.162.162 0 0 0-.264.069c-1.456-1.349-2.013 2.986-4.256 6.55.533 5.14 4.716 8.22 6.625 8.22 1.608 0 4.825-2.183 6.12-5.94zm-8.653 6.879l-.056-1.624a9.49 9.49 0 0 0-.314-.23c.066.624.103 1.27.08 1.89.098-.011.192-.026.29-.036z" fill="#720000"/></g>
</symbol>
<symbol id="twitter" viewBox="0 0 32 32"><title>twitter</title><path d="M32 7.075a12.941 12.941 0 0 1-3.769 1.031 6.601 6.601 0 0 0 2.887-3.631 13.21 13.21 0 0 1-4.169 1.594A6.565 6.565 0 0 0 22.155 4a6.563 6.563 0 0 0-6.563 6.563c0 .512.056 1.012.169 1.494A18.635 18.635 0 0 1 2.23 5.195a6.56 6.56 0 0 0-.887 3.3 6.557 6.557 0 0 0 2.919 5.463 6.565 6.565 0 0 1-2.975-.819v.081a6.565 6.565 0 0 0 5.269 6.437 6.574 6.574 0 0 1-2.968.112 6.588 6.588 0 0 0 6.131 4.563 13.17 13.17 0 0 1-9.725 2.719 18.568 18.568 0 0 0 10.069 2.95c12.075 0 18.681-10.006 18.681-18.681 0-.287-.006-.569-.019-.85A13.216 13.216 0 0 0 32 7.076z"/>
</symbol></svg>