<svg viewBox="0 0 32 32" xmlns="http://www.w3.org/2000/svg">
    <title>profile</title>
    <g class="svg__profile">
        <g class="profile--avatar">
            <path d="M1.18 18.5h13.563s-.01-3.56-5.02-3.56c-.07 0-.035-1.318-.035-1.318s2.563-1.317 2.955-5.019c.391-3.702-2.385-5.375-2.385-5.375s-5.98-2.1-6.408 6.906c-.427 9.006 2.563 3.524 2.563 3.524v1.317s-4.272.107-5.233 3.524z"
                  fill="#deaa87"/>
            <path d="M12.682 15.587c-.226-1.629.896-2.75 1.253-3.23.19-.254.156-.62.12-.923.225.346.286.967-.001 1.318-.092.112.076.258.167.144.67-.838.066-1.227.365-1.864 1.45-3.094-.962-6.233-1.516-7.547C12.232 1.498 11.287.142 8.36.481 5.818-.243 3 .263 1.86 5.113 1.563 6.369-.171 8.735.57 10.575c.06.15.219.068.212-.074-.023-.494.009-1.267.256-1.958a5.96 5.96 0 0 0-.028 1.753c-.101.272-.773 2.225.582 2.992.116.065.242-.092.127-.183a2.043 2.043 0 0 1-.411-1.126c.338.52.802 1.072 1.644 1.65.202.545.232 1.409.18 2.112-1.076.615-1.749 1.512-2.009 2.686-.031.144.184.192.216.048.238-1.076.825-1.896 1.77-2.473-.034.3-.08.556-.134.716-.201.603-2.441 1.592.117 4.272.099.103.257-.046.166-.15-.267-.555-.364-1.026-.294-1.429.338.577.96 1.2 1.734 1.457.124.043.23-.157.074-.21-.452-.262-.702-.496-.808-.774.538.365 1.153.527 1.67.43.073-.013.143-.133.04-.2-.996-.648-1.146-1.632-.458-3.007.65-.267.914-1.113.994-2.044l.242-.029a.11.11 0 0 0 .1-.113l-.036-1.052c.556.348 1.096.537 1.537.537s.981-.19 1.537-.536l-.035 1.05a.11.11 0 0 0 .1.114c.112.011.22.025.328.039.079 1.174.479 1.89 1.19 2.099.306 2.11-1.231 2.754-1.41 2.82-.118.046-.08.228.045.214 1.113-.052 1.553-.453 1.969-.846-.045.384-.316 1.021-.92 1.31-.116.055-.056.233.071.206.858-.187 1.657-.729 1.572-1.819.116.276.154.662.102 1.1-.016.13.17.173.214.048.231-.676.187-1.258.146-1.73.443.223.753.576.557 1.703-.024.134.163.185.212.058.947-2.459-.584-2.381-1.003-4.39 1.103.583 1.78 1.453 2.04 2.629.031.141.248.101.215-.048-.283-1.277-1.055-2.225-2.301-2.84zm.293-6.377a1.974 1.974 0 0 1-.438.63c.09-.308.16-.629.21-.96.073.111.15.221.228.33zm-6.647 5.615l-.101.013a10.53 10.53 0 0 0-.008-1.167l.072.05zm-2.44-4.682c2.146-.917 3.44-5.996 3.893-6.336.475-.358 1.603-.042 1.705.278a.11.11 0 0 0 .18.047c.991-.918 1.37 2.033 2.897 4.459-.363 3.499-3.21 5.595-4.51 5.595-1.094 0-3.284-1.486-4.166-4.043zm5.89 4.682l.038-1.105a6.46 6.46 0 0 0 .214-.157c-.045.425-.07.864-.055 1.287-.066-.008-.13-.018-.197-.025z"/>
        </g>
        <path d="M16.149 6.524h13.285v2.228H16.149zm0 4.873h9.369v2.228h-9.369zm0 4.355h11.505v2.228H16.149zm-13.366 5.48H31v2.228H2.783zm0 4.487h21.596v2.228H2.783zM16.149 1.794h6.023v2.228h-6.023z"
              class="profile--text"/>
    </g>
</svg>