<svg xmlns="http://www.w3.org/2000/svg" viewBox="0 0 144.54 166.91">
    <title>github</title>
    <polygon points="139.54 122.29 139.54 44.61 72.27 5.77 5 44.61 5 122.29 72.27 161.13 139.54 122.29" style="fill: none;stroke: #222;stroke-miterlimit: 10;stroke-width: 10px"/>
    <g>
        <path d="M104.71,122.35c0,6.19-14.33,11.2-32,11.2s-32-5-32-11.2,14.33-11.2,32-11.2S104.71,116.16,104.71,122.35Z" transform="translate(0.23 -0.45)" style="fill: #9cdaf1"/>
        <g>
            <path d="M64,133.13v-8a6.58,6.58,0,0,0-.5-2.62c2.06,1.6,2.2,5.63,2.2,5.63v5.12c1.86.14,3.78.23,5.74.26l-.05-5.1c-.28-7-6.26-7.82-6.26-7.82-2.18-.5-2.15.6-1.93,1.31-2.14-3.65-7.88-3.18-7.88-3.18-2,.71-.14,2-.14,2a5.56,5.56,0,0,1,3.41,4.55v7.12q2.58.44,5.4.72Z" transform="translate(0.23 -0.45)" style="fill: #7dbbe6"/>
            <path d="M89.19,118.75s-5.74-.47-7.88,3.18c.22-.71.25-1.8-1.93-1.31,0,0-6,.85-6.26,7.82l-.05,5.1c2,0,3.88-.08,5.74-.2v-5.19s.14-4,2.2-5.63a6.58,6.58,0,0,0-.5,2.62v8.07c1.87-.16,3.68-.39,5.4-.66v-7.26a5.56,5.56,0,0,1,3.41-4.55s1.85-1.28-.14-2Z" transform="translate(0.23 -0.45)" style="fill: #7dbbe6"/>
        </g>
        <path d="M129.19,75.93l.08-.42a109.06,109.06,0,0,0-24.85-1.65A44.91,44.91,0,0,0,105.67,62a20.93,20.93,0,0,0-6.26-15.29,19.84,19.84,0,0,0-.9-13.24s-4.38-1.39-14.29,5.24a50.41,50.41,0,0,0-12.15-1.45A51.22,51.22,0,0,0,58.63,39C48.41,32,43.9,33.48,43.9,33.48,41,40.84,42.77,46.3,43.33,47.65A20.53,20.53,0,0,0,37.75,62a35.25,35.25,0,0,0,1.73,11.82,108.3,108.3,0,0,0-24.21,1.68l.08.42a108,108,0,0,1,24.29-1.66,21.44,21.44,0,0,0,.91,2.07,109.51,109.51,0,0,0-25.09,3.59l.12.41a109.41,109.41,0,0,1,25.2-3.58C44.22,83.19,51,87.34,63.13,88.65A9.94,9.94,0,0,0,59,95.09c-2.34,1.12-9.75,3.85-14.2-3.8,0,0-2.49-4.55-7.25-4.91,0,0-4.62-.07-.32,2.88,0,0,3.09,1.46,5.23,6.93,0,0,2.78,9.34,16.22,6.34v9.65a5.56,5.56,0,0,1-3.41,4.55s-1.85,1.28.14,2c0,0,8.67.71,8.67-6.4V101.81s-.34-4.17,1.71-5.62v17.28s-.14,4.12-2.27,5.69c0,0-1.42,2.56,1.71,1.85,0,0,6-.85,6.26-7.82l.14-17.49H73l.14,17.49c.28,7,6.26,7.82,6.26,7.82,3.13.71,1.71-1.85,1.71-1.85-2.13-1.56-2.27-5.69-2.27-5.69V96.34c2,1.6,1.71,5.47,1.71,5.47v10.52c0,7.11,8.67,6.4,8.67,6.4,2-.71.14-2,.14-2a5.56,5.56,0,0,1-3.41-4.55V98.4c0-5.38-2.26-8.23-4.48-9.73,12.91-1.28,19.11-5.45,22-11.93A109.76,109.76,0,0,1,129,80.33l.12-.41a110.1,110.1,0,0,0-25.5-3.6,21.38,21.38,0,0,0,.72-2,109.35,109.35,0,0,1,24.9,1.64Z" transform="translate(0.23 -0.45)"/>
        <path d="M93,61.71c2.78,2.52,4.41,5.56,4.41,8.84C97.45,85.85,86,86.27,72,86.27S46.49,84.15,46.49,70.55c0-3.26,1.6-6.28,4.35-8.79,4.58-4.18,12.33-2,21.13-2S88.45,57.56,93,61.71Z" transform="translate(0.23 -0.45)" style="fill: #f4cbb2"/>
        <path d="M63.49,71.33c0,4.22-2.37,7.63-5.3,7.63s-5.3-3.42-5.3-7.63,2.37-7.63,5.3-7.63S63.49,67.11,63.49,71.33Zm28.44,0c0,4.22-2.37,7.63-5.3,7.63s-5.3-3.42-5.3-7.63,2.37-7.63,5.3-7.63S91.94,67.11,91.94,71.33Z" transform="translate(0.23 -0.45)" style="fill: #fff"/>
        <g>
            <path d="M61.8,71.42c0,2.81-1.58,5.09-3.53,5.09s-3.53-2.28-3.53-5.09,1.58-5.09,3.53-5.09,3.53,2.28,3.53,5.09Zm28.44,0c0,2.81-1.58,5.09-3.53,5.09s-3.53-2.28-3.53-5.09,1.58-5.09,3.53-5.09,3.53,2.28,3.53,5.09Z" transform="translate(0.23 -0.45)" style="fill: #ad5c51"/>
            <circle cx="72.28" cy="77.66" r="1.33" style="fill: #ad5c51"/>
            <path d="M69,81.46a.43.43,0,1,1,.8-.28,2.41,2.41,0,0,0,4.55,0,.43.43,0,0,1,.8.28,3.26,3.26,0,0,1-6.15,0Z" transform="translate(0.23 -0.45)" style="fill: #ad5c51"/>
        </g>
        <path d="M39.56,87.52c0,.35-.41.64-.92.64s-.92-.29-.92-.64.41-.64.92-.64.92.29.92.64Zm2.56,1.42c0,.35-.41.64-.92.64s-.92-.29-.92-.64.41-.64.92-.64.92.29.92.64Zm1.56,1.85c0,.35-.41.64-.92.64s-.92-.29-.92-.64.41-.64.92-.64.92.29.92.64Zm1.42,2.13c0,.35-.41.64-.92.64s-.92-.29-.92-.64.41-.64.92-.64.92.29.92.64Zm1.56,2c0,.35-.41.64-.92.64s-.92-.29-.92-.64.41-.64.92-.64.92.29.92.64Zm2.14,1.7c0,.35-.41.64-.92.64S47,97,47,96.62s.41-.64.92-.64.92.29.92.64Zm3,1.14c0,.35-.41.64-.92.64s-.92-.29-.92-.64.41-.64.92-.64.92.29.92.64Zm3,0c0,.35-.41.64-.92.64s-.92-.29-.92-.64.41-.64.92-.64.92.29.92.64Zm3-.49c0,.35-.41.64-.92.64s-.92-.29-.92-.64.41-.64.92-.64.92.29.92.64Z" transform="translate(0.23 -0.45)" style="fill: #c3e4d8"/>
        <path d="M36.16,89.42l-.92,3.22A1.12,1.12,0,0,0,36.1,94c1.14,0,1.05-1.09,1-1.44Z" transform="translate(0.23 -0.45)" style="fill: #9cdaf1"/>
    </g>
</svg>
