<svg xmlns="http://www.w3.org/2000/svg" viewBox="0 0 144.54 166.91">
    <title>linkedin</title>
    <polygon points="139.54 122.29 139.54 44.61 72.27 5.77 5 44.61 5 122.29 72.27 161.13 139.54 122.29" style="fill: none;stroke: #069;stroke-miterlimit: 10;stroke-width: 10px"/>
    <g>
        <path d="M28.83,46a6.34,6.34,0,0,1,6.42-6.26h74A6.34,6.34,0,0,1,115.71,46v74.91a6.34,6.34,0,0,1-6.42,6.26h-74a6.34,6.34,0,0,1-6.42-6.26Z" transform="translate(0.23 -0.45)" style="fill: #069"/>
        <path d="M55.16,112.93V73.44H42v39.48ZM48.6,68.05c4.58,0,7.42-3,7.42-6.82s-2.85-6.82-7.34-6.82-7.42,2.95-7.42,6.82,2.85,6.82,7.25,6.82h.09Z" transform="translate(0.23 -0.45)" style="fill: #fff"/>
        <path d="M62.43,112.93H75.55v-22a9,9,0,0,1,.43-3.2,7.18,7.18,0,0,1,6.73-4.8c4.75,0,6.65,3.62,6.65,8.93v21.12h13.12V90.29c0-12.13-6.47-17.77-15.11-17.77a13.07,13.07,0,0,0-11.91,6.65h.09V73.44H62.43c.17,3.7,0,39.48,0,39.48Z" transform="translate(0.23 -0.45)" style="fill: #fff"/>
    </g>
</svg>
