<svg xmlns="http://www.w3.org/2000/svg" xmlns:xlink="http://www.w3.org/1999/xlink" viewBox="0 0 316.44 365.4">
    <defs>
        <clipPath id="a" transform="translate(0 0)">
            <rect x="140.95" y="210.1" width="35.95" height="21.18" style="fill: none"/>
        </clipPath>
    </defs>
    <title>profile</title>
    <polygon points="311.44 271.16 311.44 94.23 158.22 5.77 5 94.23 5 271.16 158.22 359.62 311.44 271.16" style="fill: none;stroke: #4d1913;stroke-miterlimit: 10;stroke-width: 10px"/>
    <g>
        <path d="M166.23,154.12c-2.74,9.15-5.88,19.61-11.76,30.07s-23.75,23.91-24.39,38.26c-1.32,30.77,42.43,45.4,60.08,50.63s23.53,5.75,25.49,13.33.36,20.24.36,20.24,14.86-8.11,19-14.3c9-13.33-.85-22.4-.85-22.4s-3.65,3.13.65,10.19,4.32,13.34,2.75,15.17-7.06,7.58-7.06,7.58,27.26-7.7,22-29.8c-.9-3.79-3.39-1,0,0,7.59,2.25,6.16,14.73,6.16,14.73s18.5-23.86-19-37.36c-3.57-1.3-22.85-6-24.85-21.95-1.11-8.82,5.37-9.58,6.55-20.35,1.53-13.94-18.5-11-26.21-24.13-1.46-2.51,5.79-3.92,0-10.71-7-8.2-9.56-7.54-19.56-12.39s-9.41-6.8-9.41-6.8" transform="translate(0 0)" style="fill: #3b2b16"/>
        <path d="M158.82,188.51v119H93.91a15.64,15.64,0,0,0-1.59-.68c0-17.69,3-30.89,7.46-40.65,7.29-16.1,18.26-23,25.36-25.9a27.68,27.68,0,0,1,6.91-2h.33a5.12,5.12,0,0,0,.85-.18c3.29-1,5.52-5.71,7-12.6.27-1.22.51-2.41.69-3.72.36-2.18.67-4.49.91-6.94.13-1.41.26-2.84.4-4.35.61-7.35.79-15.3.79-22.78,0,0,8.74.87,15.79.87" transform="translate(0 0)" style="fill: #dcc5a1"/>
        <path d="M225.55,306.8a10.54,10.54,0,0,0-1.55.68H158.82v-119H159c7,0,15.82-.87,15.82-.87,0,7.48.19,15.34.78,22.6.13,1.44.28,2.89.41,4.3.28,2.49.56,4.85.91,7v.1c.14,1,.32,1.9.49,2.81,1.37,6.67,3.38,11.57,6.3,13.2a5.58,5.58,0,0,0,2.13.54s20.08,2.41,31.68,26.67c4.73,9.89,8.06,23.4,8.06,41.91" transform="translate(0 0)" style="fill: #edd9b4"/>
        <g style="clip-path: url(#a)">
            <g style="opacity: 0.699999988079071">
                <path d="M176.88,221.47v.05a21,21,0,0,1-18,9.75h-.08c-10.34,0-16.34-7.53-17.88-9.71.36-2.17.67-4.48.91-6.89.12-1.45.26-2.9.4-4.4a70.88,70.88,0,0,0,16.39,2.13h.19a67.27,67.27,0,0,0,16.75-2.31c.13,1.45.28,2.9.41,4.31.28,2.5.55,4.85.91,7.07" transform="translate(0 0)" style="fill: #bc9f82"/>
            </g>
        </g>
        <path d="M158.72,60.61c-67.74-.12-68.14,54.12-65.11,89.5-4.65-8.3-18.39-5.22-17.26,8.07,1.08,12.73,20.5,18.51,20.22,17.1,5.55,28.82,37.48,44.81,62.15,47.09h.53V60.62h-.53" transform="translate(0 0)" style="fill: #ccad8b"/>
        <path d="M79.78,152.59a6.71,6.71,0,0,1,9.94-1.79,5.18,5.18,0,0,1,1.6,5.9c-.48,1.71-2.38,1.84-1.9,4.44.5,2.92,1.94,3.1,2.74,3.78A5.19,5.19,0,0,1,94.79,171c-.54,2.11-3.76.43-5.95-.5a40.58,40.58,0,0,1-7.1-5.48c-2.89-3.06-4.23-9-2-12.41" transform="translate(0 0)" style="fill: #bc9f82"/>
        <path d="M159.1,60.61c67.74-.12,68.13,54.12,65.12,89.5,4.65-8.3,18.38-5.22,17.26,8.07-1.08,12.73-20.5,18.51-20.22,17.1-5.55,28.82-37.47,44.81-62.16,47.09h-.5V60.62h.5" transform="translate(0 0)" style="fill: #d9bf9f"/>
        <path d="M238.57,152.59a6.71,6.71,0,0,0-9.93-1.79c-1.37,1.23-2.44,2.85-1.6,5.9.47,1.71,2.38,1.84,1.91,4.44-.5,2.92-1.93,3.1-2.75,3.78a5.2,5.2,0,0,0-2.62,6.07c.52,2.11,3.75.43,5.92-.5a40.27,40.27,0,0,0,7.11-5.48c2.89-3.06,4.22-9,2-12.41" transform="translate(0 0)" style="fill: #bc9f82"/>
        <path d="M158.4,76c-22.62,0-39.18,6.22-49.2,18.49-14,17.14-13.47,43.31-8.29,62.1,1.56,5.75,2.38,21.23,3.47,26.91,4.88,25.41,34.51,38.95,54,38.95h.52V76h-.52" transform="translate(0 0)" style="fill: #dcc5a1"/>
        <path d="M207.51,94.48C197.57,82.29,181.2,76.08,158.94,76V222.4c22.28-.24,48.91-15.06,53.49-38.93,1.09-5.68,1.9-21.16,3.47-26.91,5.15-18.74,5.66-44.88-8.39-62.08" transform="translate(0 0)" style="fill: #edd9b4"/>
        <path d="M170.32,199.48s-5.11,5.44-11.42,5.44-11.11-5.34-11.11-5.34a73.22,73.22,0,0,1,11.11-.82,92,92,0,0,1,11.42.71" transform="translate(0 0)" style="fill: #b47070"/>
        <path d="M162.15,196.95c-1.78,0-3.21,1.11-3.25,2.47,0-1.36-1.46-2.47-3.22-2.47s-8.19,2.52-8.19,2.52,6.24.65,8,.65,3.36.7,3.38-.61c0,1.32,1.33.81,3.09.81s8.33-.85,8.33-.85-6.39-2.52-8.17-2.52" transform="translate(0 0)" style="fill: #c17874"/>
        <path d="M232.31,97.85c-.89-2.8-1.81-5.39-2.75-7.89V88.89c0-10.56-8.63-24.23-22.34-37.52S184.84,40.82,173.47,41.2l-.09.22c-5-1.16-31.83-6.9-47.81-.54-17.64,7-32.1,19.12-42.3,51.56s-1.82,59,.16,70.33c6.29,35.91,36.29,58.65,36.29,58.65s-7.59-9.6-11-19.15a111.81,111.81,0,0,1-6.56-38.91c0-18.76,17.14-42,17.14-42s-7.91,14.58-9.47,30.6a47.47,47.47,0,0,0,6.71,28.42S106,159.57,122.83,144A119.87,119.87,0,0,0,136.3,129.2h0c-4.21,12.28,4.25,22.59,4.25,22.59s-.16-15.74,8.61-21.1c21.34-13,24.73-18.43,27.74-28.92a26.09,26.09,0,0,0,.79-4l19.51,30.34c.91,1.33,2.4,3.56,4.14,6.44,5.05,8.41,12,22.2,12,34.18a111.77,111.77,0,0,1-6.56,38.91c-3.39,9.56-11,19.15-11,19.15s30.11-22.69,36.37-58.59c2-11.34,10.36-37.91.16-70.34" transform="translate(0 0)" style="fill: #4d1913"/>
        <path d="M209.11,245.2c-8.75-4.17-19.12-6.8-18.56-5.56,5.66,7.93,3.54,14.59,2.62,26-1.45,17.71-13,13.38-34.47,13.18-21.47.21-33,4.53-34.46-13.18-.94-11.38-3.05-18,2.61-26,.56-1.24-9.8,1.38-18.56,5.56a91.59,91.59,0,0,0-15.87,9.85,16.09,16.09,0,0,1,9.24,10.15c1.37,4,2.2,11.25,2.65,18,1,13.61,7.8,19.72,7.41,24.3h94c-.41-4.58,6.46-10.69,7.41-24.3.46-6.71,1.29-14,2.65-18A16.08,16.08,0,0,1,225,255a91.48,91.48,0,0,0-15.9-9.82" transform="translate(0 0)" style="fill: #fdfbf8"/>
        <path d="M149.27,239.56c1,15.37-5.72,32.79-7.23,37.8-2,6.71-7.39,14.41-7.39,14.41s5.8.52,6.66.49,8.41,1.94,10.41-3.84,9.26-43.1,8.64-44.05-2.38-4.81-2.38-4.81Z" transform="translate(0 0)" style="fill: #d7d8dc"/>
        <path d="M139.09,226.2c4.19,1.44,12.22,4.27,20.09,4s20.54-2.94,20.54-2.94,5.73,6.65.91,9.36-35.08,6.81-44.74-.49c-1.55-1.16,3.25-10,3.25-10" transform="translate(0 0)" style="fill: #434142"/>
        <path d="M153.22,229.78c.77-.53,4.12,0,6.55,0s3.41-.74,5.5,0,3.38,6.57,3.38,7.48,0,2.87-1,3,0,5.57.16,8c2.67,41.62-3.52,52.1-4.81,52.85s-23,1.34-23,1.34,5.91-13.22,8.19-20.5c6.11-19.47,6.88-40.62,6.88-40.62s-2.54.79-2.54-1.45-1.44-8.61.64-10" transform="translate(0 0)" style="fill: #434142"/>
    </g>
</svg>
