<svg class="svg timeline__item__svg svg__livenation" version="1.1" xmlns="http://www.w3.org/2000/svg" x="0px" y="0px" viewBox="0 0 110 110" xml:space="preserve">
                <circle class="svg__border" fill="#ffffff" cx="55" cy="55" r="45.7" stroke-width="5px" stroke="#e31b25"/>
                <circle class="svg__hover" fill="#e31b25" cx="55" cy="55" r="45.7"/>
                <g class="svg__logo">
                    <path fill="#241E20" d="M34,51.9c0,0,1.6,10.4,8.3,10.8c0,0-0.2,21.2,10.2,34.3c0,0-11.1-13.8-13.3-28.6 C35.2,63.9,33.3,57.9,34,51.9z"/>
                    <path fill="#241E20" d="M56.3,32.9"/>
                    <path fill="#241E20" d="M56.3,32.9c-11,12.2-15.8,42.3-1.6,63.7C48.2,82.3,44.3,54,70,50.5c6.9-4.2,10.7-18.4,0.3-28 C70.4,27.8,66.9,35.1,56.3,32.9z"/>
                    <circle fill="#019CE5" cx="41.2" cy="54.9" r="2.2"/>
                    <circle fill="#54B84A" cx="41" cy="44.2" r="4.2"/>
                    <circle fill="#FEDB01" cx="46.4" cy="32.2" r="5.5"/>
                    <circle fill="#E31B25" cx="59.3" cy="21.7" r="7.4"/>
                </g>
            </svg>