<svg class="svg svg__evolve" xmlns="http://www.w3.org/2000/svg" viewBox="0 0 100 100">
    <title>Evolve Media</title>
    <g class="svg__border">
        <path d="M100.1,145a45,45,0,1,1,45-45A45.1,45.1,0,0,1,100.1,145Z" transform="translate(-50.1 -50)" style="fill: #fff"/>
        <path d="M100.1,55a45,45,0,1,1-45,45,45.1,45.1,0,0,1,45-45m0-5a50,50,0,1,0,50,50,50,50,0,0,0-50-50Z" transform="translate(-50.1 -50)" style="fill: #163656"/>
    </g>
    <g class="svg__logo">
        <g fill="#4d4d4d">
            <polygon points="61.5 52.2 59 46 56.8 54.3 57.7 54.3 59.1 48.8 61.5 54.5 63.9 48.9 65.3 54.3 66.3 54.3 64.1 46 61.5 52.2"/>
            <polygon points="67.8 54.3 72.1 54.3 72.1 53.4 68.7 53.4 68.7 50.4 72.1 50.4 72.1 49.4 68.7 49.4 68.7 47.2 72.1 47.2 72.1 46.3 67.8 46.3 67.8 54.3"/>
            <path d="M126,96.3h-1.9v8H126a4.5,4.5,0,0,0,3.4-1.2,3.9,3.9,0,0,0,1.2-2.8,4,4,0,0,0-1.1-2.8,4.5,4.5,0,0,0-3.4-1.2m-.9.9h.6a6.2,6.2,0,0,1,2,.3,2.7,2.7,0,0,1,1.3,1.1,3,3,0,0,1,.5,1.8,3,3,0,0,1-.3,1.4,2.8,2.8,0,0,1-.9,1,3.2,3.2,0,0,1-1.2.5h-2V97.2Z" transform="translate(-50.1 -50)"/>
            <rect x="82" y="46.3" width="0.9" height="8.02"/>
            <path d="M138.3,96l-3.8,8.3h1l1-2.1h3.6l1,2.1h1Zm1.5,5.4h-2.9l1.5-3.2Z" transform="translate(-50.1 -50)"/>
        </g>
        <g>
            <polygon points="9.3 46.3 13.8 46.3 13.8 47.4 10.4 47.4 10.4 49.4 13.8 49.4 13.8 50.5 10.4 50.5 10.4 53.2 13.8 53.2 13.8 54.3 9.3 54.3 9.3 46.3"/>
            <polygon points="14.8 46.3 15.9 46.3 18.5 52 21 46.3 22.2 46.3 18.4 54.6 14.8 46.3"/>
            <path d="M72.2,100.3a4,4,0,0,1,1.3-3A4.4,4.4,0,0,1,76.7,96a4.3,4.3,0,0,1,3.1,1.3,4,4,0,0,1,1.3,3,4.1,4.1,0,0,1-1.3,3.1,4.5,4.5,0,0,1-6.3,0,4.1,4.1,0,0,1-1.3-3.1m7.7.1a3,3,0,0,0-1-2.2,3.3,3.3,0,0,0-2.4-.9,3.1,3.1,0,0,0-2.3.9,3,3,0,0,0-.9,2.2,2.9,2.9,0,0,0,1,2.2,3.4,3.4,0,0,0,2.4.9,3.1,3.1,0,0,0,2.2-.9,3,3,0,0,0,.9-2.2" transform="translate(-50.1 -50)"/>
            <polygon points="32.3 46.3 33.3 46.3 33.3 53.2 36 53.2 36 54.3 32.3 54.3 32.3 46.3"/>
            <polygon points="35.7 46.3 36.8 46.3 39.4 52 41.9 46.3 43.1 46.3 39.4 54.6 35.7 46.3"/>
            <polygon points="48.7 53.2 48.7 53.2 45.3 53.2 45.3 50.5 48.7 50.5 48.7 49.4 45.3 49.4 45.3 47.4 48.7 47.4 48.7 46.3 44.2 46.3 44.2 54.3 48.4 54.3 48.7 53.2"/>
        </g>
        <polygon points="53.3 56.5 50.1 56.5 53.4 43.7 56.6 43.7 53.3 56.5" fill="#163656"/>
    </g>
    <circle class="svg__hover" cx="49.7" cy="50.3" r="45.7" fill="#163656"/>
</svg>
