<svg class="svg timeline__item__svg svg__ibm" version="1.1" xmlns="http://www.w3.org/2000/svg" x="0px" y="0px" viewBox="0 0 110 110" xml:space="preserve">
                <circle class="svg__border" fill="#ffffff" cx="55" cy="55" r="45.7" stroke-width="5px" stroke="#4C81C2"/>
                <circle class="svg__hover" fill="#4C81C2" cx="55" cy="55" r="45.7"/>
                <g class="svg__logo" fill="#4C81C2">
                    <polygon points="92.1,42.4 80.1,42.4 80.8,40.3 92.1,40.3 	"/>
                    <path d="M59.9,40.3h11.2l0.7,2.1H59.9V40.3z"/>
                    <path d="M51,40.3c1.8,0.1,3.5,0.9,4.8,2.1H35.6v-2.1H51z"/>
                    <rect x="19.7" y="40.3" width="14.1" height="2.1"/>
                    <path d="M26.7,41.4"/>
                    <polygon points="92.1,46.3 78.7,46.3 79.4,44.3 92.1,44.3 	"/>
                    <polygon points="73.3,46.3 60,46.3 60,44.3 72.6,44.3 	"/>
                    <path d="M57.4,44.3c0.3,0.7,0.5,1.4,0.6,2.1H35.6v-2.1H57.4z"/>
                    <rect x="19.7" y="44.3" width="14.1" height="2.1"/>
                    <path d="M26.7,45.3"/>
                    <polygon points="77.3,50.2 78.1,48.2 88.1,48.2 88.1,50.2 	"/>
                    <polygon points="73.9,48.2 74.7,50.2 63.9,50.2 63.9,48.2 	"/>
                    <path d="M58.2,48.2c0,0.7-0.1,1.4-0.3,2.1h-6.2v-2.1H58.2z"/>
                    <rect x="23.6" y="48.2" width="6.1" height="2.1"/>
                    <path d="M26.6,49.2"/>
                    <rect x="39.7" y="48.2" width="6.1" height="2.1"/>
                    <path d="M42.7,49.2"/>
                    <path d="M69.9,52.5v1.6h-6V52h11.4l0.7,1.9l0.7-1.9h11.4v2.1h-5.9v-1.6l-0.5,1.6H70.4L69.9,52.5z"/>
                    <path d="M39.6,52H57c-0.4,0.8-1,1.5-1.7,2.1H39.6V52z"/>
                    <rect x="23.6" y="52" width="6.1" height="2.1"/>
                    <path d="M26.6,53"/>
                    <rect x="82.2" y="55.9" width="5.9" height="2.1"/>
                    <path d="M85.1,56.9"/>
                    <path d="M69.9,55.9h-6V58h6V55.9z"/>
                    <path d="M81,55.9L80.3,58h-8.4l-0.7-2.1H81z"/>
                    <path d="M39.6,55.9h15.6c0.7,0.6,1.4,1.3,1.9,2.1H39.6V55.9z"/>
                    <polygon points="29.7,58 29.7,55.9 23.6,55.9 23.6,58 	"/>
                    <rect x="82.2" y="59.8" width="5.9" height="2.1"/>
                    <path d="M85.1,60.8"/>
                    <rect x="63.9" y="59.8" width="6" height="2.1"/>
                    <path d="M66.9,60.8"/>
                    <path d="M78.9,61.9l0.7-2.1h-7.2l0.7,2.1H78.9z"/>
                    <path d="M39.6,61.9v-2.1h6.1v2.1H39.6z"/>
                    <path d="M58,59.8c0.3,0.7,0.4,1.4,0.4,2.1h-6.5v-2.1H58z"/>
                    <rect x="23.6" y="59.8" width="6.1" height="2.1"/>
                    <path d="M26.6,60.8"/>
                    <rect x="82.2" y="63.6" width="9.9" height="2.1"/>
                    <path d="M87.1,64.6"/>
                    <rect x="60" y="63.6" width="9.9" height="2.1"/>
                    <path d="M64.9,64.6"/>
                    <polygon points="77.6,65.7 74.5,65.7 73.8,63.6 78.3,63.6 	"/>
                    <path d="M19.6,63.6v2.1h14.1v-2.1H19.6z"/>
                    <path d="M58.1,63.6c-0.1,0.8-0.4,1.5-0.8,2.1H35.6v-2.1H58.1z"/>
                    <polygon points="76.2,69.6 75.9,69.6 75.2,67.5 76.9,67.5 	"/>
                    <rect x="82.2" y="67.5" width="9.9" height="2.1"/>
                    <path d="M87.1,68.6"/>
                    <path d="M35.6,69.6v-2.1H56c-1.4,1.4-3.3,2.1-5.3,2.1H35.6"/>
                    <rect x="60" y="67.5" width="9.9" height="2.1"/>
                    <path d="M64.9,68.6"/>
                    <path d="M33.7,67.5v2.1H19.6v-2.1H33.7z"/>
                </g>
            </svg>