<svg class="svg timeline__item__svg svg__synth" version="1.1" id="Layer_1" xmlns="http://www.w3.org/2000/svg" x="0px" y="0px" viewBox="0 0 110 110" xml:space="preserve">
    <circle class="svg__border" fill="#ffffff" cx="55" cy="55" r="45.7" stroke-width="5px" stroke="#FA8B08"/>
    <circle class="svg__hover" fill="#FA8B08" cx="55" cy="55" r="45.7"/>
    <g class="svg__logo" fill="#FA8B08">
        <path d="M62.1,84.7c7.7,0,13.9-6.2,13.9-13.9S69.8,57,62.1,57h-14c-9.8,0.1-17.9-7.7-18-17.5
c-0.1-4.8,1.8-9.4,5.3-12.8c3.3-3.4,7.9-5.3,12.7-5.3h29.4v3.9l-29.4,0.1c-7.6-0.1-13.9,6-14,13.6c0,3.8,1.4,7.4,4.1,10
c2.6,2.7,6.1,4.2,9.8,4.1h14c9.8,0,17.8,8,17.8,17.8s-8,17.8-17.8,17.8H30.2v-4L62.1,84.7z"/>
        <path d="M53.7,24.3H62c0,0-13.3,6.2-14.2,15.4c0,0-1.4,9.8,3.3,13.9h-2.7C48.4,53.6,38.8,36.6,53.7,24.3z"/>
        <path d="M55.6,85.6h-8.3c0,0,13.3-6.2,14.2-15.4c0,0,1.4-9.8-3.3-13.9h2.7C60.9,56.3,70.5,73.3,55.6,85.6z"/>
    </g>
</svg>