<svg class="svg svg__synth" xmlns="http://www.w3.org/2000/svg" viewBox="0 0 100 100">
    <title>Synth Venture</title>
    <g class="svg__border">
        <path fill="#ffffff" d="M100.05,145a45,45,0,1,1,45-45A45.05,45.05,0,0,1,100.05,145Z" transform="translate(-50.05 -50)"/>
        <path fill="#fa8b08" d="M100.1,55a45,45,0,1,1-45,45,45.1,45.1,0,0,1,45-45m0-5a50,50,0,1,0,50,50,50,50,0,0,0-50-50Z" transform="translate(-50.1 -50)"/>
    </g>
    <g class="svg__logo" fill="#fa8b08">
        <path d="M108.1,129.37a13.86,13.86,0,0,0,0-27.73h-14A17.76,17.76,0,0,1,81.37,71.27,17.28,17.28,0,0,1,94.06,66h29.41l0,3.94L94.06,70a13.79,13.79,0,0,0-9.85,23.61,13.42,13.42,0,0,0,9.85,4.12h14a17.82,17.82,0,1,1,0,35.65H76.19v-4Z" transform="translate(-50.05 -50)"/>
        <path d="M99.74,69H108s-13.3,6.18-14.24,15.38c0,0-1.39,9.81,3.31,13.91H94.41S84.82,81.29,99.74,69Z" transform="translate(-50.05 -50)"/>
        <path d="M101.57,130.31H93.29s13.3-6.18,14.24-15.38c0,0,1.39-9.81-3.31-13.91h2.69S116.49,118,101.57,130.31Z" transform="translate(-50.05 -50)"/>
    </g>
    <circle class="svg__hover" fill="#fa8b08" cx="50.33" cy="50.33" r="45.67"/>
</svg>
