<svg class="svg timeline__item__svg svg__evolve" version="1.1" id="Layer_1" xmlns="http://www.w3.org/2000/svg" x="0px" y="0px" viewBox="0 0 110 110" xml:space="preserve">
                <circle class="svg__border" fill="#ffffff" cx="55" cy="55" r="45.7" stroke-width="5px" stroke="#163656"/>
                <circle class="svg__hover" fill="#163656" cx="55" cy="55" r="45.7"/>
                <g class="svg__logo">
                    <g class="logo__evolve--media" fill="#4D4D4D">
                        <polygon points="66.5,57.2 64,51 61.8,59.3 62.7,59.3 64.1,53.8 66.5,59.5 68.9,53.9 70.3,59.3 71.3,59.3 69.1,51
                "/>
                        <polygon points="72.8,59.3 77.1,59.3 77.1,58.4 73.7,58.4 73.7,55.4 77.1,55.4 77.1,54.4 73.7,54.4 73.7,52.2
        77.1,52.2 77.1,51.3 72.8,51.3 		"/>
                        <path d="M80.9,51.3H79v8h1.9c1.3,0.1,2.5-0.3,3.4-1.2c0.8-0.7,1.2-1.7,1.2-2.8c0-1-0.4-2-1.1-2.8
        C83.5,51.6,82.3,51.2,80.9,51.3 M80.1,52.2h0.6c0.7,0,1.4,0.1,2,0.3c0.5,0.2,1,0.6,1.3,1.1c0.4,0.5,0.5,1.2,0.5,1.8
        c0,0.5-0.1,1-0.3,1.4c-0.2,0.4-0.5,0.7-0.9,1c-0.4,0.2-0.8,0.4-1.2,0.5h-2C80.1,58.3,80.1,52.2,80.1,52.2z"/>
                        <rect x="87" y="51.3" width="0.9" height="8"/>
                        <path d="M93.2,51l-3.8,8.3h1l1-2.1H95l1,2.1h1L93.2,51z M94.7,56.4h-2.9l1.5-3.2L94.7,56.4z"/>
                    </g>
                    <g class="logo__evolve--evolve">
                        <polygon points="14.3,51.3 18.8,51.3 18.8,52.4 15.4,52.4 15.4,54.4 18.8,54.4 18.8,55.5 15.4,55.5 15.4,58.2 18.8,58.2
        18.8,59.3 14.3,59.3"/>
                        <polygon points="19.8,51.3 20.9,51.3 23.5,57 26,51.3 27.2,51.3 23.4,59.6 		"/>
                        <path d="M27.1,55.3c0-1.1,0.5-2.2,1.3-3c0.8-0.9,2-1.3,3.2-1.3c1.2,0,2.3,0.5,3.1,1.3c0.8,0.8,1.3,1.9,1.3,3
        c0,1.2-0.4,2.3-1.3,3.1c-1.7,1.7-4.6,1.7-6.3,0C27.5,57.6,27.1,56.5,27.1,55.3 M34.8,55.4c0-0.8-0.4-1.6-1-2.2
        c-0.6-0.6-1.5-0.9-2.4-0.9c-0.9,0-1.7,0.3-2.3,0.9c-0.6,0.6-0.9,1.4-0.9,2.2c0,0.8,0.4,1.6,1,2.2c0.7,0.6,1.5,0.9,2.4,0.9
        c0.8,0,1.6-0.3,2.2-0.9c0.6-0.6,0.9-1.4,0.9-2.2"/>
                        <polygon points="37.3,51.3 38.3,51.3 38.3,58.2 41,58.2 41,59.3 37.3,59.3 		"/>
                        <polygon points="40.7,51.3 41.8,51.3 44.4,57 46.9,51.3 48.1,51.3 44.4,59.6 		"/>
                        <polygon points="53.7,58.2 53.7,58.2 50.3,58.2 50.3,55.5 53.7,55.5 53.7,54.4 50.3,54.4 50.3,52.4 53.7,52.4 53.7,51.3
        49.2,51.3 49.2,59.3 53.4,59.3 		"/>
                    </g>
                    <polygon class="logo__evolve--slash" fill="#163656" points="58.3,61.5 55.1,61.5 58.4,48.7 61.6,48.7 	"/>
                </g>
            </svg>