<svg class="svg svg__ibm" xmlns="http://www.w3.org/2000/svg" viewBox="0 0 100 100">
    <title>IBM</title>
    <g class="svg__border">
        <path fill="#ffffff" d="M100.1,145a45,45,0,1,1,45-45A45.1,45.1,0,0,1,100.1,145Z" transform="translate(-50.1 -50)"/>
        <path fill="#4c81c2" d="M100.1,55a45,45,0,1,1-45,45,45.1,45.1,0,0,1,45-45m0-5a50,50,0,1,0,50,50,50,50,0,0,0-50-50Z" transform="translate(-50.1 -50)"/>
    </g>
    <g class="svg__logo" fill="#4c81c2">
        <polygon points="87.1 37.4 75.1 37.4 75.8 35.3 87.1 35.3 87.1 37.4"/>
        <path d="M105,85.3h11.2l.7,2.1H105Z" transform="translate(-50.1 -50)"/>
        <path d="M96.1,85.3a8.1,8.1,0,0,1,4.8,2.1H80.7V85.3Z" transform="translate(-50.1 -50)"/>
        <g>
            <rect x="14.7" y="35.3" width="14.1" height="2.08"/>
            <path d="M71.8,86.4" transform="translate(-50.1 -50)"/>
        </g>
        <polygon points="87.1 41.3 73.7 41.3 74.4 39.3 87.1 39.3 87.1 41.3"/>
        <polygon points="68.3 41.3 55 41.3 55 39.3 67.6 39.3 68.3 41.3"/>
        <path d="M102.5,89.3a5.4,5.4,0,0,1,.6,2.1H80.7V89.3Z" transform="translate(-50.1 -50)"/>
        <g>
            <rect x="14.7" y="39.3" width="14.1" height="2.07"/>
            <path d="M71.8,90.3" transform="translate(-50.1 -50)"/>
        </g>
        <polygon points="72.3 45.2 73.1 43.2 83.1 43.2 83.1 45.2 72.3 45.2"/>
        <polygon points="68.9 43.2 69.7 45.2 58.9 45.2 58.9 43.2 68.9 43.2"/>
        <path d="M103.3,93.2a6.8,6.8,0,0,1-.3,2.1H96.8V93.2Z" transform="translate(-50.1 -50)"/>
        <g>
            <rect x="18.6" y="43.2" width="6.1" height="2.07"/>
            <path d="M71.7,94.2" transform="translate(-50.1 -50)"/>
        </g>
        <g>
            <rect x="34.7" y="43.2" width="6.1" height="2.08"/>
            <path d="M87.8,94.2" transform="translate(-50.1 -50)"/>
        </g>
        <path d="M115,97.5v1.6h-6V97h11.4l.7,1.9.7-1.9h11.4v2.1h-5.9V97.5l-.5,1.6H115.5Z" transform="translate(-50.1 -50)"/>
        <path d="M84.7,97h17.4a7.8,7.8,0,0,1-1.7,2.1H84.7Z" transform="translate(-50.1 -50)"/>
        <g>
            <rect x="18.6" y="47" width="6.1" height="2.07"/>
            <path d="M71.7,98" transform="translate(-50.1 -50)"/>
        </g>
        <g>
            <rect x="77.2" y="50.9" width="5.9" height="2.07"/>
            <path d="M130.2,101.9" transform="translate(-50.1 -50)"/>
        </g>
        <path d="M115,100.9h-6V103h6S115,100.9,115,100.9Z" transform="translate(-50.1 -50)"/>
        <path d="M126.1,100.9l-.7,2.1h-8.4l-.7-2.1Z" transform="translate(-50.1 -50)"/>
        <path d="M84.7,100.9h15.6a10.2,10.2,0,0,1,1.9,2.1H84.7Z" transform="translate(-50.1 -50)"/>
        <polygon points="24.7 53 24.7 50.9 18.6 50.9 18.6 53 24.7 53"/>
        <g>
            <rect x="77.2" y="54.8" width="5.9" height="2.07"/>
            <path d="M130.2,105.8" transform="translate(-50.1 -50)"/>
        </g>
        <g>
            <rect x="58.9" y="54.8" width="6" height="2.07"/>
            <path d="M112,105.8" transform="translate(-50.1 -50)"/>
        </g>
        <path d="M124,106.9l.7-2.1h-7.2l.7,2.1Z" transform="translate(-50.1 -50)"/>
        <path d="M84.7,106.9s0-2.1,0-2.1h6.1s0,2.1,0,2.1Z" transform="translate(-50.1 -50)"/>
        <path d="M103.1,104.8a6,6,0,0,1,.4,2.1H97v-2.1Z" transform="translate(-50.1 -50)"/>
        <g>
            <rect x="18.6" y="54.8" width="6.1" height="2.07"/>
            <path d="M71.7,105.8" transform="translate(-50.1 -50)"/>
        </g>
        <g>
            <rect x="77.2" y="58.6" width="9.9" height="2.07"/>
            <path d="M132.2,109.6" transform="translate(-50.1 -50)"/>
        </g>
        <g>
            <rect x="55" y="58.6" width="9.9" height="2.07"/>
            <path d="M110,109.6" transform="translate(-50.1 -50)"/>
        </g>
        <polygon points="72.6 60.7 69.5 60.7 68.8 58.6 73.3 58.6 72.6 60.7"/>
        <path d="M64.7,108.6v2.1H78.8s0-2.1,0-2.1Z" transform="translate(-50.1 -50)"/>
        <path d="M103.2,108.6a4.4,4.4,0,0,1-.8,2.1H80.7v-2.1Z" transform="translate(-50.1 -50)"/>
        <polygon points="71.2 64.6 70.9 64.6 70.2 62.5 71.9 62.5 71.2 64.6"/>
        <g>
            <rect x="77.2" y="62.5" width="9.9" height="2.08"/>
            <path d="M132.2,113.6" transform="translate(-50.1 -50)"/>
        </g>
        <path d="M80.7,114.6v-2.1h20.4a7.7,7.7,0,0,1-5.3,2.1H80.7" transform="translate(-50.1 -50)"/>
        <g>
            <rect x="55" y="62.5" width="9.9" height="2.08"/>
            <path d="M110,113.6" transform="translate(-50.1 -50)"/>
        </g>
        <path d="M78.8,112.5s0,2.1,0,2.1H64.7v-2.1Z" transform="translate(-50.1 -50)"/>
    </g>
    <circle class="svg__hover" fill="#4c81c2" cx="49.7" cy="49.7" r="45.7"/>
</svg>
