<svg xmlns="http://www.w3.org/2000/svg" viewBox="0 0 144.54 166.9">
    <title>works</title>
    <g>
        <path d="M113.59,45.6V70.76H67.86V45.36h45.73Zm-.67,5.24h-5.75v4.47h5.75Zm-6.45,0h-5.75v4.47h5.78Zm-6.42,0H94.3v4.47H100Zm-6.45,0H87.85v4.47H93.6Zm-6.42,0H81.41v4.47h5.77Zm-6.45,0H75v4.47h5.75Zm-6.42,0H68.5v4.47h5.77Zm-5.81-.5h5.77V45.87H68.5Zm6.45,0H80.7V45.87H75Zm6.42,0h5.77V45.87H81.41Zm6.45,0H93.6V45.87H87.85Zm6.45,0H100V45.87H94.3Zm6.42,0h5.81V45.87h-5.78Zm6.45,0h5.75V45.87h-5.72Zm5.75,5.48h-5.72V60.3h5.75Zm-6.45,0h-5.72V60.3h5.78Zm-6.42,0H94.3V60.3H100Zm-6.45,0H87.85V60.3H93.6Zm-6.42,0H81.41V60.3h5.77Zm-6.45,0H75V60.3h5.75Zm-6.42,0H68.5V60.3h5.77Zm38.61,5h-5.72v4.47h5.75Zm-6.39,0h-5.78v4.47h5.78Zm-6.42,0H94.3v4.47H100Zm-6.45,0H87.85v4.47H93.6Zm-6.42,0h-5.8v4.47h5.77Zm-6.45,0H75v4.47h5.75Zm-6.42,0H68.5v4.47h5.77Zm38.61,5h-5.78v4.47h5.75Zm-6.45,0h-5.78v4.47h5.78Zm-6.42,0H94.3v4.47H100Zm-6.45,0H87.85v4.47H93.6Zm-6.42,0h-5.8v4.47h5.77Zm-6.45,0H75v4.47h5.75Zm-6.42,0H68.5v4.47h5.77Z" transform="translate(-15.23 -4.05)" style="fill: #cf7659"/>
        <g>
            <path d="M55.93,69.78h63.15a2.34,2.34,0,0,1,2.33,2.35h0v43.13H53.57V72.13a2.36,2.36,0,0,1,2.36-2.36h0Z" transform="translate(-15.23 -4.05)" style="fill: #4d565e"/>
            <path d="M43.09,123.16h88.83c.24,0,.19-.19-.1-.41l-9.55-7.34a1.89,1.89,0,0,0-1-.41H53.72a1.89,1.89,0,0,0-1,.41l-9.54,7.34c-.29.22-.34.41-.1.41Z" transform="translate(-15.23 -4.05)" style="fill: #343b42"/>
            <path d="M43.42,122.63h88.17c.65,0,.72.55.14,1.23l-1.23,1.34a3.63,3.63,0,0,1-2.29,1.2H46.77a3.63,3.63,0,0,1-2.27-1.2l-1.2-1.35c-.58-.67-.53-1.23.14-1.23Z" transform="translate(-15.23 -4.05)" style="fill: #4d565e"/>
            <polygon points="65.36 115.02 69.09 115.02 75.46 115.02 79.19 115.02 81.28 117.3 73.37 117.3 71.18 117.3 63.27 117.3 65.36 115.02" style="fill: #e6e6e6"/>
            <rect x="40.48" y="68.66" width="63.58" height="40.24" style="fill: #e6e6e6"/>
        </g>
        <g>
            <rect x="44.91" y="76.31" width="35.1" height="2" style="fill: gray"/>
            <rect x="65.38" y="80.23" width="20.81" height="1.71" style="fill: gray"/>
            <rect x="46.14" y="83.84" width="20.78" height="1.71" style="fill: gray"/>
            <rect x="46.14" y="91.39" width="20.78" height="1.71" style="fill: gray"/>
            <rect x="46.14" y="94.4" width="20.78" height="1.73" style="fill: gray"/>
            <rect x="68.73" y="94.4" width="6.57" height="1.73" style="fill: #f77b55"/>
            <rect x="77.58" y="94.4" width="6.57" height="1.73" style="fill: gray"/>
            <rect x="69.28" y="91.49" width="14.87" height="1.71" style="fill: gray"/>
            <rect x="71.56" y="83.84" width="11.21" height="1.71" style="fill: gray"/>
            <rect x="47.6" y="80.23" width="6.01" height="1.71" style="fill: gray"/>
            <rect x="56.22" y="80.23" width="6.01" height="1.71" style="fill: #f77b55"/>
            <rect x="83.83" y="76.31" width="5.36" height="2" style="fill: #f77b55"/>
            <rect x="46.14" y="98.63" width="6.64" height="1.71" style="fill: gray"/>
            <rect x="54.99" y="98.63" width="6.64" height="1.71" style="fill: #f77b55"/>
            <rect x="64.54" y="98.63" width="10.75" height="1.71" style="fill: gray"/>
        </g>
        <g>
            <path d="M56.29,56.16a6,6,0,0,1,1.85,1.54l2.36-.84,1.3,3.58-2.31.84a5.18,5.18,0,0,1-.1,1.2,5.78,5.78,0,0,1-.31,1.15L61,65.22,58.5,68.14l-1.88-1.56a6.06,6.06,0,0,1-2.26.82l-.43,2.41-3.73-.65.41-2.43a6,6,0,0,1-1.85-1.54L46.47,66l-1.36-3.59,2.31-.84a6.93,6.93,0,0,1,.1-1.2,5.8,5.8,0,0,1,.34-1.15L46,57.66l2.45-2.91,1.88,1.59a6,6,0,0,1,2.21-.84l.43-2.41,3.75.65Z" transform="translate(-15.23 -4.05)" style="fill: #e6e6e6"/>
            <path d="M81.6,48.27a8.84,8.84,0,0,1,1.18,3.34l3.54.67-1,5.46-3.54-.65a9.7,9.7,0,0,1-1,1.44,8.79,8.79,0,0,1-1.28,1.24l1.18,3.39L75.41,65l-1.18-3.39A8.61,8.61,0,0,1,70.77,61l-2.36,2.72-4.23-3.63,2.32-2.72A8.84,8.84,0,0,1,65.32,54l-3.54-.65,1-5.48,3.54.65a9.75,9.75,0,0,1,1-1.44,9,9,0,0,1,1.3-1.23l-1.12-3.4,5.22-1.85L73.9,44a9.25,9.25,0,0,1,3.49.65l2.33-2.72L84,45.55Z" transform="translate(-15.23 -4.05)" style="fill: #e6e5e5"/>
            <path d="M53.77,59.58a1.89,1.89,0,1,1-2.19,1.54,1.89,1.89,0,0,1,2.19-1.54Zm.31-1.83a3.75,3.75,0,1,1-4.33,3.06h0a3.74,3.74,0,0,1,4.32-3.05Z" transform="translate(-15.23 -4.05)" style="fill: #363f48"/>
            <path d="M75.87,50.7a2.78,2.78,0,1,1-3.94.29,2.78,2.78,0,0,1,3.94-.29Zm1.76-2a5.48,5.48,0,1,1-7.75.58,5.48,5.48,0,0,1,7.75-.58Z" transform="translate(-15.23 -4.05)" style="fill: #363f48"/>
        </g>
    </g>
    <polygon points="139.54 122.29 139.54 44.61 72.27 5.77 5 44.61 5 122.29 72.27 161.13 139.54 122.29" style="fill: none;stroke: #cf7659;stroke-miterlimit: 10;stroke-width: 10px"/>
</svg>
