<?xml version="1.0" encoding="UTF-8"?>
<svg xmlns="http://www.w3.org/2000/svg" viewBox="0 0 100 100">
    <title>contact</title>
    <g>
        <path d="M50,1.18,94.84,37.37c-.22,0-1,3.9-1.23,3.9L87.79,63.16,12.88,61.77,6.61,39.87c-.23,0-1.22-2.46-1.45-2.51Z" fill="#f16227"/>
        <path d="M90.91,63.16H89.17V18.52a2.69,2.69,0,0,0-2.94-2.34H13.69a2.7,2.7,0,0,0-2.94,2.34V63.16H8.81A3.88,3.88,0,0,0,4.93,67V90.85a3.88,3.88,0,0,0,3.88,3.88h82.1a3.88,3.88,0,0,0,3.88-3.88V67A3.88,3.88,0,0,0,90.91,63.16Z" fill="#fff"/>
        <path d="M62.18,64.59l-11,9.14a1.87,1.87,0,0,1-2.4,0l-11-9.14-30.05,30a3.52,3.52,0,0,0,.91.19H91.31a3.57,3.57,0,0,0,.92-.19Z" fill="#f1b82b"/>
        <path d="M95.07,38.49a3.67,3.67,0,0,0-.23-1.12L65.08,62.17,94.89,92a3.82,3.82,0,0,0,.18-.91Z" fill="#f1b82b"/>
        <path d="M5.16,37.36a3.59,3.59,0,0,0-.23,1.12V91.07a3.58,3.58,0,0,0,.19.92L34.93,62.17Z" fill="#f1b82b"/>
        <path d="M57.27,59.14a20.74,20.74,0,0,1-10.13,2.28c-9.33,0-17.25-6.83-17.25-17.76C29.89,31.93,38,21.8,50.66,21.8c9.9,0,16.56,6.94,16.56,16.45,0,8.54-4.78,13.55-10.13,13.55-2.28,0-4.38-1.54-4.21-5h-.23c-2,3.36-4.61,5-8,5s-6.15-2.67-6.15-7.17A13.44,13.44,0,0,1,52,31.14a15,15,0,0,1,6.09,1.2l-1.94,10.3C55.27,47,56,49,57.83,49c2.9.06,6.15-3.81,6.15-10.42,0-8.25-5-14.17-13.77-14.17-9.28,0-17.07,7.34-17.07,18.9,0,9.5,6.2,15.37,14.63,15.37a17.76,17.76,0,0,0,8.59-2ZM54.13,34.55a9.82,9.82,0,0,0-2.85-.4c-5,0-9,4.72-9,10.24,0,2.5,1.25,4.33,3.76,4.33,3.3,0,6.32-4.21,6.94-7.74Z" fill="#f1624c"/>
    </g>
</svg>
