<?xml version="1.0" encoding="UTF-8"?>
<svg width="100mm" height="100mm" version="1.1" viewBox="0 0 100 100" xmlns="http://www.w3.org/2000/svg">
    <defs>
        <clipPath id="clipPath236">
            <path d="m129.46 651.2h10.618v-6.255h-10.618z"/>
        </clipPath>
    </defs>
    <g transform="translate(0,-197)" class="svg__profile">
        <g transform="translate(1.572 -.41376)">
            <g transform="matrix(1.1944 0 0 -1.1944 51.254 240.86)">
                <path d="m0 0c-0.81-2.702-1.738-5.791-3.472-8.88-1.741-3.088-7.017-7.063-7.205-11.301-0.391-9.088 12.531-13.408 17.744-14.954 5.212-1.541 6.95-1.698 7.529-3.938 0.579-2.237 0.105-5.978 0.105-5.978s4.388 2.396 5.628 4.225c2.662 3.936-0.251 6.616-0.251 6.616s-1.079-0.925 0.193-3.01c1.275-2.084 1.275-3.94 0.813-4.48-0.462-0.542-2.085-2.238-2.085-2.238s8.052 2.275 6.484 8.803c-0.266 1.119-1 0.302 0 0 2.241-0.666 1.82-4.35 1.82-4.35s5.464 7.047-5.602 11.034c-1.053 0.383-6.748 1.786-7.339 6.483-0.328 2.604 1.586 2.83 1.934 6.011 0.453 4.118-5.464 3.25-7.74 7.127-0.43 0.741 1.711 1.158 0 3.164-2.062 2.421-2.823 2.228-5.777 3.659-2.952 1.429-2.779 2.007-2.779 2.007" fill="#3b2b16"/>
            </g>
            <g transform="matrix(1.1944 0 0 -1.1944 48.64 252.99)">
                <path d="m0 0v-35.14h-19.171c-0.31 0.147-0.471 0.2-0.471 0.2 0 5.226 0.898 9.125 2.203 12.006 2.153 4.754 5.393 6.791 7.491 7.65 1.208 0.509 2.042 0.602 2.042 0.602h0.096c0.079 0.013 0.173 0.026 0.252 0.054 0.971 0.281 1.629 1.687 2.071 3.723 0.081 0.361 0.152 0.711 0.204 1.098 0.106 0.644 0.199 1.326 0.269 2.051 0.039 0.415 0.077 0.84 0.117 1.285 0.179 2.172 0.232 4.518 0.232 6.727 0 0 2.582-0.256 4.665-0.256" fill="#dcc5a1"/>
            </g>
            <g transform="matrix(1.1944 0 0 -1.1944 72.181 294.72)">
                <path d="m0 0s-0.176-0.054-0.459-0.2h-19.25v35.14h0.041c2.082 0 4.674 0.256 4.674 0.256 0-2.209 0.056-4.532 0.231-6.674 0.038-0.426 0.082-0.855 0.12-1.271 0.082-0.736 0.164-1.433 0.269-2.076v-0.029c0.041-0.292 0.094-0.56 0.146-0.829 0.404-1.97 0.998-3.418 1.861-3.899 0.064-0.026 0.129-0.066 0.199-0.08 0.134-0.054 0.283-0.08 0.429-0.08 0 0 5.93-0.712 9.358-7.878 1.398-2.921 2.381-6.91 2.381-12.38" fill="#edd9b4"/>
            </g>
            <g transform="matrix(1.1944 0 0 -1.1944 -112.29 1038.4)">
                <g clip-path="url(#clipPath236)" opacity=".7">
                    <g transform="translate(140.07 647.84)">
                        <path d="m0 0v-0.015c-0.471-0.749-2.095-2.879-5.312-2.879h-0.024c-3.053 0.011-4.826 2.224-5.282 2.869 0.105 0.64 0.199 1.324 0.269 2.035 0.035 0.427 0.076 0.857 0.117 1.299 1.492-0.377 3.106-0.605 4.841-0.63h0.055c1.773 0.025 3.411 0.266 4.947 0.682 0.038-0.429 0.082-0.858 0.12-1.272 0.082-0.738 0.161-1.432 0.269-2.089" fill="#bc9f82"/>
                    </g>
                </g>
            </g>
            <g transform="matrix(1.1944 0 0 -1.1944 48.619 207.87)">
                <path d="m0 0c-20.008 0.035-20.125-15.986-19.232-26.435-1.373 2.451-5.432 1.541-5.099-2.385 0.319-3.759 6.055-5.466 5.973-5.051 1.638-8.511 11.069-13.235 18.358-13.909 0.05-5e-3 0.105 0 0.158-8e-3v47.785c-0.056 0-0.108 3e-3 -0.158 3e-3" fill="#ccad8b"/>
            </g>
            <g transform="matrix(1.1944 0 0 -1.1944 20.756 240.32)">
                <path d="m0 0c1.006 1.518 2.554 0.866 2.934 0.528 0.403-0.364 0.725-0.843 0.474-1.742-0.141-0.505-0.702-0.544-0.562-1.311 0.149-0.862 0.573-0.917 0.81-1.115 0.234-0.192 0.536-0.346 0.688-0.707 0.14-0.367 0.169-0.753 0.088-1.085-0.159-0.624-1.112-0.127-1.756 0.147-0.418 0.183-1.761 1.252-2.097 1.619-0.854 0.904-1.249 2.657-0.579 3.666" fill="#bc9f82"/>
            </g>
            <g transform="matrix(1.1944 0 0 -1.1944 48.738 207.87)">
                <path d="m0 0c20.007 0.035 20.124-15.986 19.235-26.435 1.372 2.451 5.429 1.541 5.099-2.385-0.319-3.759-6.055-5.466-5.973-5.051-1.638-8.511-11.066-13.235-18.361-13.909-0.05-5e-3 -0.105 0-0.149-8e-3v47.785c0.047 0 0.099 3e-3 0.149 3e-3" fill="#d9bf9f"/>
            </g>
            <g transform="matrix(1.1944 0 0 -1.1944 76.772 240.32)">
                <path d="m0 0c-1.003 1.518-2.553 0.866-2.934 0.528-0.406-0.364-0.722-0.843-0.474-1.742 0.138-0.505 0.702-0.544 0.565-1.311-0.149-0.862-0.571-0.917-0.813-1.115-0.234-0.192-0.536-0.346-0.685-0.707-0.14-0.367-0.17-0.753-0.088-1.085 0.153-0.624 1.109-0.127 1.75 0.147 0.424 0.183 1.761 1.252 2.1 1.619 0.854 0.904 1.246 2.657 0.579 3.666" fill="#bc9f82"/>
            </g>
            <g transform="matrix(1.1944 0 0 -1.1944 48.493 213.29)">
                <path d="m0 0c-6.681 0-11.572-1.838-14.532-5.462-4.133-5.062-3.978-12.793-2.448-18.343 0.462-1.697 0.702-6.27 1.026-7.948 1.44-7.506 10.192-11.504 15.954-11.504 0.053 0 0.105 5e-3 0.155 5e-3v43.245c-0.053 0-0.099 7e-3 -0.155 7e-3" fill="#dcc5a1"/>
            </g>
            <g transform="matrix(1.1944 0 0 -1.1944 65.815 219.82)">
                <path d="m0 0c-2.937 3.601-7.772 5.436-14.347 5.461v-43.244c6.581 0.07 14.446 4.449 15.798 11.498 0.322 1.679 0.562 6.251 1.026 7.948 1.522 5.534 1.671 13.257-2.477 18.337" fill="#edd9b4"/>
            </g>
            <g transform="matrix(1.1944 0 0 -1.1944 52.696 256.86)">
                <path d="m0 0s-1.509-1.608-3.373-1.608c-1.86 0-3.282 1.576-3.282 1.576s1.422 0.243 3.282 0.243c1.864 0 3.373-0.211 3.373-0.211" fill="#b47070"/>
            </g>
            <g transform="matrix(1.1944 0 0 -1.1944 49.814 255.97)">
                <path d="m0 0c-0.526 0-0.948-0.329-0.959-0.73-6e-3 0.401-0.43 0.73-0.951 0.73-0.529 0-2.419-0.745-2.419-0.745s1.843-0.191 2.372-0.191c0.524 0 0.992-0.207 0.998 0.18 9e-3 -0.391 0.392-0.239 0.912-0.239 0.533 0 2.46 0.25 2.46 0.25s-1.886 0.745-2.413 0.745" fill="#c17874"/>
            </g>
            <g transform="matrix(1.1944 0 0 -1.1944 74.564 221.01)">
                <path d="m0 0c-0.263 0.826-0.535 1.592-0.813 2.33v0.317c0 3.118-2.548 7.157-6.599 11.081-4.054 3.923-6.608 3.117-9.966 3.003 0 0-9e-3 -0.023-0.026-0.064-1.474 0.342-9.401 2.038-14.12 0.159-5.209-2.079-9.48-5.646-12.493-15.229-3.013-9.577-0.538-17.428 0.047-20.774 1.849-10.604 10.726-17.318 10.726-17.318s-2.243 2.834-3.243 5.657c-0.779 2.19-1.937 5.954-1.937 11.492 0 5.541 5.063 12.404 5.063 12.404s-2.337-4.305-2.796-9.039c-0.465-4.732 1.983-8.393 1.983-8.393s-3.1 6.146 1.858 10.735c1.573 1.463 2.895 2.986 3.96 4.376 0-3e-3 -3e-3 -6e-3 -3e-3 -0.01-1.243-3.626 1.255-6.673 1.255-6.673s-0.046 4.65 2.542 6.231c6.304 3.849 7.304 5.443 8.193 8.541 0.12 0.425 0.188 0.812 0.234 1.191l5.763-8.962c0.269-0.392 0.71-1.051 1.222-1.902 1.492-2.485 3.557-6.556 3.557-10.096 0-5.543-1.161-9.304-1.939-11.493-1-2.825-3.244-5.657-3.244-5.657s8.881 6.713 10.729 17.316c0.585 3.348 3.06 11.196 0.047 20.777" fill="#4d1913"/>
            </g>
            <g transform="matrix(1.1944 0 0 -1.1944 66.381 272.98)">
                <path d="m0 0c-2.583 1.233-5.646 2.008-5.482 1.642 1.673-2.343 1.047-4.308 0.773-7.67-0.427-5.23-3.838-3.953-10.18-3.892-6.341-0.061-9.752-1.338-10.179 3.892-0.278 3.362-0.901 5.327 0.772 7.67 0.164 0.366-2.896-0.409-5.481-1.642-2.583-1.227-4.687-2.91-4.687-2.91s1.934-0.636 2.727-3.006c0.404-1.183 0.649-3.322 0.784-5.305 0.281-4.021 2.305-5.824 2.188-7.178h27.753c-0.12 1.354 1.907 3.157 2.188 7.178 0.137 1.983 0.38 4.122 0.784 5.305 0.792 2.37 2.726 3.006 2.726 3.006s-2.103 1.683-4.686 2.91" fill="#fdfbf8"/>
            </g>
            <g transform="matrix(1.1944 0 0 -1.1944 45.272 271)">
                <path d="m0 0c0.298-4.541-1.688-9.686-2.135-11.164-0.594-1.981-2.182-4.257-2.182-4.257s1.714-0.154 1.968-0.145c0.255 0.01 2.495-0.566 3.063 1.134 0.57 1.706 2.735 12.729 2.553 13.011-0.178 0.284-0.702 1.421-0.702 1.421z" fill="#d7d8dc"/>
            </g>
            <g transform="matrix(1.1944 0 0 -1.1944 41.68 266.27)">
                <path d="m0 0c1.237-0.424 3.61-1.261 5.935-1.174 2.325 0.091 6.052 0.845 6.052 0.845s1.691-1.965 0.269-2.766c-1.421-0.805-10.361-2.011-13.215 0.144-0.457 0.344 0.959 2.951 0.959 2.951" fill="#434142"/>
            </g>
            <g transform="matrix(1.1944 0 0 -1.1944 46.663 267.55)">
                <path d="m0 0c0.228 0.156 1.217 0 1.936 0 0.72 0 1.007 0.22 1.624 0 0.614-0.218 0.997-1.941 0.997-2.208s3e-3 -0.847-0.286-0.878c-0.293-0.026 5e-3 -1.645 0.046-2.35 0.79-12.294-1.041-15.389-1.421-15.61-0.381-0.22-6.789-0.397-6.789-0.397s1.746 3.906 2.419 6.054c1.804 5.751 2.033 11.998 2.033 11.998s-0.749-0.233-0.749 0.429c0 0.664-0.424 2.542 0.19 2.962" fill="#434142"/>
            </g>
        </g>
    </g>
</svg>
