<?xml version="1.0" encoding="utf-8"?>
<svg xmlns="http://www.w3.org/2000/svg">
<symbol id="circle-down" viewBox="0 0 32 32"><title>circle-down</title><path d="M32 16c0-8.837-7.163-16-16-16S0 7.163 0 16s7.163 16 16 16 16-7.163 16-16zM3 16C3 8.82 8.82 3 16 3s13 5.82 13 13-5.82 13-13 13S3 23.18 3 16z"/><path d="M9.914 11.086l-2.829 2.829 8.914 8.914 8.914-8.914-2.828-2.828-6.086 6.086z"/>
</symbol>
<symbol id="circle-up" viewBox="0 0 32 32"><title>circle-up</title><path d="M0 16c0 8.837 7.163 16 16 16s16-7.163 16-16S24.837 0 16 0 0 7.163 0 16zm29 0c0 7.18-5.82 13-13 13S3 23.18 3 16 8.82 3 16 3s13 5.82 13 13z"/><path d="M22.086 20.914l2.829-2.829-8.914-8.914-8.914 8.914 2.828 2.828 6.086-6.086z"/>
</symbol>
<symbol id="contact" viewBox="0 0 100 100"><title>contact</title><path d="M50 1.18l44.84 36.19c-.22 0-1 3.9-1.23 3.9l-5.82 21.89-74.91-1.39-6.27-21.9c-.23 0-1.22-2.46-1.45-2.51z" fill="#f16227"/><path d="M90.91 63.16h-1.74V18.52a2.69 2.69 0 0 0-2.94-2.34H13.69a2.7 2.7 0 0 0-2.94 2.34v44.64H8.81A3.88 3.88 0 0 0 4.93 67v23.85a3.88 3.88 0 0 0 3.88 3.88h82.1a3.88 3.88 0 0 0 3.88-3.88V67a3.88 3.88 0 0 0-3.88-3.84z" fill="#fff"/><path d="M62.18 64.59l-11 9.14a1.87 1.87 0 0 1-2.4 0l-11-9.14-30.05 30a3.52 3.52 0 0 0 .91.19h82.67a3.57 3.57 0 0 0 .92-.19zM95.07 38.49a3.67 3.67 0 0 0-.23-1.12l-29.76 24.8L94.89 92a3.82 3.82 0 0 0 .18-.91zM5.16 37.36a3.59 3.59 0 0 0-.23 1.12v52.59a3.58 3.58 0 0 0 .19.92l29.81-29.82z" fill="#f1b82b"/><path d="M57.27 59.14a20.74 20.74 0 0 1-10.13 2.28c-9.33 0-17.25-6.83-17.25-17.76 0-11.73 8.11-21.86 20.77-21.86 9.9 0 16.56 6.94 16.56 16.45 0 8.54-4.78 13.55-10.13 13.55-2.28 0-4.38-1.54-4.21-5h-.23c-2 3.36-4.61 5-8 5s-6.15-2.67-6.15-7.17A13.44 13.44 0 0 1 52 31.14a15 15 0 0 1 6.09 1.2l-1.94 10.3C55.27 47 56 49 57.83 49c2.9.06 6.15-3.81 6.15-10.42 0-8.25-5-14.17-13.77-14.17-9.28 0-17.07 7.34-17.07 18.9 0 9.5 6.2 15.37 14.63 15.37a17.76 17.76 0 0 0 8.59-2zm-3.14-24.59a9.82 9.82 0 0 0-2.85-.4c-5 0-9 4.72-9 10.24 0 2.5 1.25 4.33 3.76 4.33 3.3 0 6.32-4.21 6.94-7.74z" fill="#f1624c"/>
</symbol>
<symbol id="github" viewBox="0 0 32 32"><title>github</title><path d="M16 .395c-8.836 0-16 7.163-16 16 0 7.069 4.585 13.067 10.942 15.182.8.148 1.094-.347 1.094-.77 0-.381-.015-1.642-.022-2.979-4.452.968-5.391-1.888-5.391-1.888-.728-1.849-1.776-2.341-1.776-2.341-1.452-.993.11-.973.11-.973 1.606.113 2.452 1.649 2.452 1.649 1.427 2.446 3.743 1.739 4.656 1.33.143-1.034.558-1.74 1.016-2.14-3.554-.404-7.29-1.777-7.29-7.907 0-1.747.625-3.174 1.649-4.295-.166-.403-.714-2.03.155-4.234 0 0 1.344-.43 4.401 1.64a15.353 15.353 0 0 1 4.005-.539c1.359.006 2.729.184 4.008.539 3.054-2.07 4.395-1.64 4.395-1.64.871 2.204.323 3.831.157 4.234 1.026 1.12 1.647 2.548 1.647 4.295 0 6.145-3.743 7.498-7.306 7.895.574.497 1.085 1.47 1.085 2.963 0 2.141-.019 3.864-.019 4.391 0 .426.288.925 1.099.768C27.421 29.457 32 23.462 32 16.395c0-8.837-7.164-16-16-16z"/>
</symbol>
<symbol id="profile" viewBox="0 0 100 100"><defs><clipPath id="a"><path d="M129.46 651.2h10.618v-6.255H129.46z"/></clipPath></defs><g class="svg__profile"><path d="M52.826 43.446c-.967 3.228-2.076 6.917-4.147 10.607-2.08 3.688-8.381 8.436-8.606 13.497-.467 10.855 14.967 16.015 21.194 17.861 6.225 1.841 8.3 2.029 8.992 4.704.692 2.672.126 7.14.126 7.14s5.24-2.862 6.722-5.046c3.18-4.701-.3-7.902-.3-7.902s-1.289 1.104.23 3.595c1.524 2.489 1.524 4.706.972 5.35-.552.648-2.49 2.674-2.49 2.674s9.617-2.717 7.744-10.515c-.318-1.336-1.195-.36 0 0 2.677.796 2.174 5.196 2.174 5.196s6.526-8.417-6.691-13.179c-1.258-.457-8.06-2.133-8.766-7.743-.392-3.11 1.894-3.38 2.31-7.18.541-4.918-6.526-3.882-9.245-8.512-.513-.885 2.044-1.383 0-3.78-2.463-2.89-3.372-2.66-6.9-4.37-3.526-1.706-3.319-2.397-3.319-2.397" fill="#3b2b16"/><path d="M50.212 55.576v41.971H27.314a5.516 5.516 0 0 0-.562-.238c0-6.242 1.072-10.9 2.63-14.34 2.572-5.679 6.442-8.112 8.948-9.138 1.443-.607 2.44-.719 2.44-.719h.114c.094-.015.206-.03.3-.064 1.16-.336 1.946-2.015 2.474-4.447.097-.431.182-.849.244-1.311.127-.77.238-1.584.321-2.45.047-.496.092-1.003.14-1.535.214-2.594.277-5.396.277-8.035 0 0 3.084.306 5.572.306" fill="#dcc5a1"/><path d="M73.753 97.306s-.21.065-.548.24H50.213V55.573h.049c2.486 0 5.582-.306 5.582-.306 0 2.639.067 5.413.276 7.972.045.508.098 1.02.143 1.518.098.879.196 1.711.322 2.48v.034c.049.349.112.669.174.99.483 2.353 1.192 4.082 2.223 4.657.076.031.154.079.238.096.16.064.338.095.512.095 0 0 7.083.85 11.177 9.41 1.67 3.488 2.844 8.253 2.844 14.786" fill="#edd9b4"/><g clip-path="url(#a)" opacity=".7" transform="matrix(1.1944 0 0 -1.1944 -110.718 840.986)"><path d="M140.07 647.84v-.015a6.2 6.2 0 0 0-5.312-2.879h-.024c-3.053.011-4.826 2.224-5.282 2.869.105.64.199 1.324.269 2.035.035.427.076.857.117 1.299a20.935 20.935 0 0 1 4.841-.63h.055a19.87 19.87 0 0 1 4.947.682c.038-.429.082-.858.12-1.272.082-.738.161-1.432.269-2.089" fill="#bc9f82"/></g><path d="M50.191 10.456c-23.898-.042-24.037 19.094-22.97 31.574-1.64-2.927-6.489-1.84-6.09 2.849.38 4.49 7.231 6.528 7.133 6.033 1.957 10.165 13.221 15.808 21.927 16.613.06.006.125 0 .189.01V10.46c-.067 0-.13-.004-.189-.004" fill="#ccad8b"/><path d="M22.328 42.906c1.202-1.813 3.05-1.034 3.504-.63.482.434.866 1.006.567 2.08-.169.603-.839.65-.672 1.566.178 1.03.685 1.095.968 1.332.28.23.64.413.821.844.168.439.202.9.106 1.296-.19.746-1.329.152-2.098-.175-.499-.219-2.103-1.496-2.504-1.934-1.02-1.08-1.492-3.174-.692-4.379" fill="#bc9f82"/><path d="M50.31 10.456c23.896-.042 24.036 19.094 22.974 31.574 1.639-2.927 6.485-1.84 6.09 2.849-.38 4.49-7.232 6.528-7.134 6.033-1.956 10.165-13.217 15.808-21.93 16.613-.06.006-.125 0-.178.01V10.46c.056 0 .118-.004.178-.004" fill="#d9bf9f"/><path d="M78.344 42.906c-1.198-1.813-3.05-1.034-3.504-.63-.485.434-.863 1.006-.567 2.08.165.603.839.65.675 1.566-.178 1.03-.682 1.095-.97 1.332-.28.23-.64.413-.819.844-.167.439-.203.9-.105 1.296.183.746 1.325.152 2.09-.175.507-.219 2.104-1.496 2.508-1.934 1.02-1.08 1.489-3.174.692-4.379" fill="#bc9f82"/><path d="M50.065 15.876c-7.98 0-13.822 2.196-17.357 6.524-4.936 6.046-4.751 15.28-2.924 21.909.552 2.027.839 7.489 1.226 9.493 1.72 8.965 12.173 13.74 19.055 13.74.063 0 .125-.006.185-.006V15.885c-.063 0-.118-.009-.185-.009" fill="#dcc5a1"/><path d="M67.387 22.406c-3.508-4.3-9.283-6.493-17.136-6.522v51.65c7.86-.083 17.254-5.314 18.87-13.733.384-2.005.67-7.466 1.225-9.493 1.817-6.61 1.995-15.834-2.959-21.902" fill="#edd9b4"/><path d="M54.268 59.446s-1.802 1.92-4.029 1.92c-2.221 0-3.92-1.882-3.92-1.882s1.699-.29 3.92-.29c2.227 0 4.029.252 4.029.252" fill="#b47070"/><path d="M51.386 58.556c-.628 0-1.132.393-1.145.872-.008-.479-.514-.872-1.136-.872-.632 0-2.89.89-2.89.89s2.202.228 2.834.228c.625 0 1.184.247 1.192-.215.01.467.468.286 1.089.286.636 0 2.938-.299 2.938-.299s-2.253-.89-2.882-.89" fill="#c17874"/><path d="M76.136 23.596a56.162 56.162 0 0 0-.971-2.783v-.378c0-3.724-3.043-8.549-7.882-13.235-4.842-4.686-7.892-3.723-11.903-3.587l-.031.076c-1.76-.408-11.229-2.434-16.865-.19-6.222 2.483-11.323 6.744-14.922 18.19-3.599 11.439-.642 20.816.056 24.812C25.827 59.167 36.43 67.186 36.43 67.186s-2.679-3.385-3.873-6.757c-.93-2.616-2.314-7.111-2.314-13.726 0-6.618 6.048-14.815 6.048-14.815s-2.792 5.142-3.34 10.796c-.555 5.652 2.369 10.025 2.369 10.025s-3.703-7.341 2.219-12.822a42.286 42.286 0 0 0 4.73-5.227c0 .004-.004.007-.004.012-1.485 4.33 1.499 7.97 1.499 7.97s-.055-5.554 3.036-7.442c7.53-4.597 8.724-6.501 9.786-10.202.143-.507.224-.97.28-1.422l6.883 10.704c.321.468.848 1.255 1.46 2.272 1.781 2.968 4.248 7.83 4.248 12.059 0 6.62-1.387 11.112-2.316 13.727-1.195 3.374-3.875 6.757-3.875 6.757s10.608-8.018 12.815-20.683c.699-3.999 3.655-13.372.056-24.816" fill="#4d1913"/><path d="M67.953 75.566c-3.085-1.472-6.744-2.398-6.548-1.961 1.999 2.799 1.25 5.146.924 9.161-.51 6.247-4.585 4.722-12.16 4.649-7.573.073-11.647 1.598-12.157-4.649-.332-4.015-1.076-6.362.922-9.161.196-.437-3.46.489-6.547 1.961-3.085 1.466-5.598 3.476-5.598 3.476s2.31.76 3.257 3.59c.483 1.413.775 3.968.937 6.337.335 4.802 2.753 6.956 2.613 8.573h33.148c-.143-1.617 2.278-3.77 2.614-8.573.163-2.369.453-4.924.936-6.337.946-2.83 3.256-3.59 3.256-3.59s-2.512-2.01-5.597-3.476" fill="#fdfbf8"/><path d="M46.844 73.586c.356 5.424-2.016 11.57-2.55 13.335-.71 2.366-2.606 5.084-2.606 5.084s2.047.184 2.35.173c.305-.012 2.98.676 3.659-1.354.68-2.038 3.266-15.204 3.05-15.54-.213-.34-.84-1.698-.84-1.698z" fill="#d7d8dc"/><path d="M43.252 68.856c1.477.507 4.312 1.506 7.089 1.402 2.777-.108 7.228-1.009 7.228-1.009s2.02 2.347.322 3.304c-1.698.961-12.376 2.402-15.784-.172-.546-.411 1.145-3.525 1.145-3.525" fill="#434142"/><path d="M48.235 70.136c.272-.186 1.454 0 2.312 0 .86 0 1.203-.263 1.94 0 .733.26 1.19 2.319 1.19 2.637s.004 1.012-.34 1.05c-.35.03.005 1.964.054 2.806.944 14.684-1.243 18.38-1.697 18.645-.455.262-8.109.474-8.109.474s2.086-4.666 2.89-7.231c2.154-6.87 2.428-14.33 2.428-14.33s-.895.278-.895-.513c0-.793-.506-3.036.227-3.538" fill="#434142"/></g>
</symbol>
<symbol id="twitter" viewBox="0 0 32 32"><title>twitter</title><path d="M32 7.075a12.941 12.941 0 0 1-3.769 1.031 6.601 6.601 0 0 0 2.887-3.631 13.21 13.21 0 0 1-4.169 1.594A6.565 6.565 0 0 0 22.155 4a6.563 6.563 0 0 0-6.563 6.563c0 .512.056 1.012.169 1.494A18.635 18.635 0 0 1 2.23 5.195a6.56 6.56 0 0 0-.887 3.3 6.557 6.557 0 0 0 2.919 5.463 6.565 6.565 0 0 1-2.975-.819v.081a6.565 6.565 0 0 0 5.269 6.437 6.574 6.574 0 0 1-2.968.112 6.588 6.588 0 0 0 6.131 4.563 13.17 13.17 0 0 1-9.725 2.719 18.568 18.568 0 0 0 10.069 2.95c12.075 0 18.681-10.006 18.681-18.681 0-.287-.006-.569-.019-.85A13.216 13.216 0 0 0 32 7.076z"/>
</symbol>
<symbol id="works" viewBox="0 0 100 100"><title>works</title><path d="M76.09 12.1v25.16H30.36v-25.4h45.73zm-.67 5.24h-5.75v4.47h5.75zm-6.45 0h-5.75v4.47H69zm-6.42 0H56.8v4.47h5.75zm-6.45 0h-5.75v4.47h5.75zm-6.42 0h-5.77v4.47h5.77zm-6.45 0h-5.75v4.47h5.75zm-6.42 0H31v4.47h5.77zm-5.81-.5h5.77v-4.47H31zm6.45 0h5.75v-4.47h-5.72zm6.42 0h5.77v-4.47h-5.73zm6.45 0h5.78v-4.47h-5.75zm6.45 0h5.75v-4.47H56.8zm6.42 0H69v-4.47h-5.78zm6.45 0h5.75v-4.47h-5.72zm5.75 5.48h-5.72v4.48h5.75zm-6.45 0h-5.72v4.48H69zm-6.42 0H56.8v4.48h5.75zm-6.45 0h-5.72v4.48h5.75zm-6.42 0h-5.74v4.48h5.77zm-6.45 0h-5.72v4.48h5.75zm-6.42 0H31v4.48h5.77zm38.61 5h-5.72v4.47h5.75zM69 27.3h-5.78v4.47H69zm-6.42 0H56.8v4.47h5.75zm-6.45 0h-5.78v4.47h5.75zm-6.42 0h-5.8v4.47h5.77zm-6.45 0h-5.78v4.47h5.75zm-6.42 0H31v4.47h5.77zm38.61 5h-5.78v4.47h5.75zm-6.45 0h-5.78v4.47H69zm-6.42 0H56.8v4.47h5.75zm-6.45 0h-5.78v4.47h5.75zm-6.42 0h-5.8v4.47h5.77zm-6.45 0h-5.78v4.47h5.75zm-6.42 0H31v4.47h5.77z" fill="#cf7659"/><path d="M18.43 36.28h63.15a2.34 2.34 0 0 1 2.33 2.36v43.13H16.07V38.63a2.36 2.36 0 0 1 2.36-2.36z" fill="#4d565e" fill-rule="evenodd"/><path d="M5.59 89.66h88.83c.24 0 .19-.19-.1-.41l-9.55-7.34a1.89 1.89 0 0 0-1-.41H16.22a1.89 1.89 0 0 0-1 .41l-9.54 7.34c-.29.22-.34.41-.1.41z" fill="#343b42" fill-rule="evenodd"/><path d="M5.92 89.13h88.17c.65 0 .72.55.14 1.23L93 91.7a3.63 3.63 0 0 1-2.29 1.2H9.27A3.63 3.63 0 0 1 7 91.7l-1.2-1.35c-.58-.67-.53-1.23.14-1.23z" fill="#4d565e" fill-rule="evenodd"/><path fill="#e6e6e6" fill-rule="evenodd" d="M43.09 85.57h13.83l2.09 2.28H41l2.09-2.28z"/><path fill="#e6e6e6" d="M18.21 39.21h63.58v40.24H18.21z"/><g><path fill="gray" d="M22.64 46.86h35.1v2h-35.1zM43.11 50.78h20.81v1.71H43.11zM23.87 54.39h20.78v1.71H23.87zM23.87 61.94h20.78v1.71H23.87zM23.87 64.95h20.78v1.73H23.87z"/><path fill="#f77b55" d="M46.46 64.95h6.57v1.73h-6.57z"/><path fill="gray" d="M55.31 64.95h6.57v1.73h-6.57zM47.01 62.04h14.87v1.71H47.01zM49.29 54.39H60.5v1.71H49.29zM25.33 50.78h6.01v1.71h-6.01z"/><path fill="#f77b55" d="M33.95 50.78h6.01v1.71h-6.01zM61.56 46.86h5.36v2h-5.36z"/><path fill="gray" d="M23.87 69.18h6.64v1.71h-6.64z"/><path fill="#f77b55" d="M32.72 69.18h6.64v1.71h-6.64z"/><path fill="gray" d="M42.27 69.18h10.75v1.71H42.27z"/></g><g fill-rule="evenodd"><path d="M18.79 22.66a6 6 0 0 1 1.85 1.54l2.36-.84 1.3 3.58-2.31.84a5.18 5.18 0 0 1-.1 1.2 5.78 5.78 0 0 1-.31 1.15l1.88 1.59L21 34.64l-1.88-1.56a6.06 6.06 0 0 1-2.26.82l-.43 2.41-3.73-.65.41-2.43a6 6 0 0 1-1.85-1.54l-2.29.84-1.36-3.59 2.31-.84a6.93 6.93 0 0 1 .1-1.2 5.8 5.8 0 0 1 .34-1.15l-1.9-1.59 2.45-2.91 1.88 1.59A6 6 0 0 1 15 22l.43-2.41 3.75.65z" fill="#e6e6e6"/><path d="M44.1 14.77a8.84 8.84 0 0 1 1.18 3.34l3.54.67-1 5.46-3.54-.65a9.7 9.7 0 0 1-1 1.44A8.79 8.79 0 0 1 42 26.27l1.18 3.39-5.27 1.85-1.18-3.39a8.61 8.61 0 0 1-3.46-.65l-2.36 2.72-4.23-3.63L29 23.84a8.84 8.84 0 0 1-1.18-3.34l-3.54-.65 1-5.48 3.54.65a9.75 9.75 0 0 1 1-1.44 9 9 0 0 1 1.3-1.23L30 8.95l5.22-1.85 1.18 3.39a9.25 9.25 0 0 1 3.49.65l2.33-2.72 4.23 3.63z" fill="#e6e5e5"/><path d="M16.27 26.08a1.89 1.89 0 0 1-.65 3.73 1.89 1.89 0 1 1 .65-3.73zm.31-1.83a3.75 3.75 0 1 1-4.33 3.05 3.74 3.74 0 0 1 4.33-3.05zM38.37 17.2a2.78 2.78 0 1 1-3.94.29 2.78 2.78 0 0 1 3.94-.29zm1.76-2a5.48 5.48 0 1 1-7.75.58 5.48 5.48 0 0 1 7.75-.58z" fill="#363f48"/></g>
</symbol></svg>