<?xml version="1.0" encoding="UTF-8"?>
<svg id="Coding" xmlns="http://www.w3.org/2000/svg" viewBox="0 0 100 100">
    <title>works</title>
    <g>
        <path id="Compound" d="M76.09,12.1V37.26H30.36V11.86H76.09Zm-.67,5.24H69.67v4.47h5.75Zm-6.45,0H63.22v4.47H69Zm-6.42,0H56.8v4.47h5.75Zm-6.45,0H50.35v4.47H56.1Zm-6.42,0H43.91v4.47h5.77Zm-6.45,0H37.48v4.47h5.75Zm-6.42,0H31v4.47h5.77ZM31,16.84h5.77V12.37H31Zm6.45,0h5.75V12.37H37.48Zm6.42,0h5.77V12.37H43.91Zm6.45,0H56.1V12.37H50.35Zm6.45,0h5.75V12.37H56.8Zm6.42,0H69V12.37H63.22Zm6.45,0h5.75V12.37H69.67Zm5.75,5.48H69.67V26.8h5.75Zm-6.45,0H63.22V26.8H69Zm-6.42,0H56.8V26.8h5.75Zm-6.45,0H50.35V26.8H56.1Zm-6.42,0H43.91V26.8h5.77Zm-6.45,0H37.48V26.8h5.75Zm-6.42,0H31V26.8h5.77Zm38.61,5H69.67v4.47h5.75ZM69,27.3H63.22v4.47H69Zm-6.42,0H56.8v4.47h5.75Zm-6.45,0H50.35v4.47H56.1Zm-6.42,0H43.91v4.47h5.77Zm-6.45,0H37.48v4.47h5.75Zm-6.42,0H31v4.47h5.77Zm38.61,5H69.67v4.47h5.75Zm-6.45,0H63.22v4.47H69Zm-6.42,0H56.8v4.47h5.75Zm-6.45,0H50.35v4.47H56.1Zm-6.42,0H43.91v4.47h5.77Zm-6.45,0H37.48v4.47h5.75Zm-6.42,0H31v4.47h5.77Z" fill="#cf7659"/>
        <g id="Laptop">
            <path d="M18.43,36.28H81.58a2.34,2.34,0,0,1,2.33,2.36V81.77H16.07V38.63a2.36,2.36,0,0,1,2.36-2.36Z" fill="#4d565e" fill-rule="evenodd"/>
            <path d="M5.59,89.66H94.42c.24,0,.19-.19-.1-.41l-9.55-7.34a1.89,1.89,0,0,0-1-.41H16.22a1.89,1.89,0,0,0-1,.41L5.68,89.25c-.29.22-.34.41-.1.41Z" fill="#343b42" fill-rule="evenodd"/>
            <path d="M5.92,89.13H94.09c.65,0,.72.55.14,1.23L93,91.7a3.63,3.63,0,0,1-2.29,1.2H9.27A3.63,3.63,0,0,1,7,91.7l-1.2-1.35c-.58-.67-.53-1.23.14-1.23Z" fill="#4d565e" fill-rule="evenodd"/>
            <polygon points="43.09 85.57 46.82 85.57 53.19 85.57 56.92 85.57 59.01 87.85 51.1 87.85 48.91 87.85 41 87.85 43.09 85.57" fill="#e6e6e6" fill-rule="evenodd"/>
            <rect x="18.21" y="39.21" width="63.58" height="40.24" fill="#e6e6e6"/>
        </g>
        <g id="Codes">
            <rect x="22.64" y="46.86" width="35.1" height="2" fill="gray"/>
            <rect x="43.11" y="50.78" width="20.81" height="1.71" fill="gray"/>
            <rect x="23.87" y="54.39" width="20.78" height="1.71" fill="gray"/>
            <rect x="23.87" y="61.94" width="20.78" height="1.71" fill="gray"/>
            <rect x="23.87" y="64.95" width="20.78" height="1.73" fill="gray"/>
            <rect x="46.46" y="64.95" width="6.57" height="1.73" fill="#f77b55"/>
            <rect x="55.31" y="64.95" width="6.57" height="1.73" fill="gray"/>
            <rect x="47.01" y="62.04" width="14.87" height="1.71" fill="gray"/>
            <rect x="49.29" y="54.39" width="11.21" height="1.71" fill="gray"/>
            <rect x="25.33" y="50.78" width="6.01" height="1.71" fill="gray"/>
            <rect x="33.95" y="50.78" width="6.01" height="1.71" fill="#f77b55"/>
            <rect x="61.56" y="46.86" width="5.36" height="2" fill="#f77b55"/>
            <rect x="23.87" y="69.18" width="6.64" height="1.71" fill="gray"/>
            <rect x="32.72" y="69.18" width="6.64" height="1.71" fill="#f77b55"/>
            <rect x="42.27" y="69.18" width="10.75" height="1.71" fill="gray"/>
        </g>
        <g id="Gears">
            <path d="M18.79,22.66a6,6,0,0,1,1.85,1.54L23,23.36l1.3,3.58-2.31.84a5.18,5.18,0,0,1-.1,1.2,5.78,5.78,0,0,1-.31,1.15l1.88,1.59L21,34.64l-1.88-1.56a6.06,6.06,0,0,1-2.26.82l-.43,2.41-3.73-.65.41-2.43a6,6,0,0,1-1.85-1.54l-2.29.84L7.61,28.94l2.31-.84a6.93,6.93,0,0,1,.1-1.2,5.8,5.8,0,0,1,.34-1.15l-1.9-1.59,2.45-2.91,1.88,1.59A6,6,0,0,1,15,22l.43-2.41,3.75.65Z" fill="#e6e6e6" fill-rule="evenodd"/>
            <path d="M44.1,14.77a8.84,8.84,0,0,1,1.18,3.34l3.54.67-1,5.46-3.54-.65a9.7,9.7,0,0,1-1,1.44A8.79,8.79,0,0,1,42,26.27l1.18,3.39-5.27,1.85-1.18-3.39a8.61,8.61,0,0,1-3.46-.65l-2.36,2.72-4.23-3.63L29,23.84a8.84,8.84,0,0,1-1.18-3.34l-3.54-.65,1-5.48,3.54.65a9.75,9.75,0,0,1,1-1.44,9,9,0,0,1,1.3-1.23L30,8.95,35.22,7.1l1.18,3.39a9.25,9.25,0,0,1,3.49.65l2.33-2.72,4.23,3.63Z" fill="#e6e5e5" fill-rule="evenodd"/>
            <path d="M16.27,26.08a1.89,1.89,0,0,1-.65,3.73,1.89,1.89,0,1,1,.65-3.73Zm.31-1.83a3.75,3.75,0,1,1-4.33,3.05,3.74,3.74,0,0,1,4.33-3.05Z" fill="#363f48" fill-rule="evenodd"/>
            <path d="M38.37,17.2a2.78,2.78,0,1,1-3.94.29,2.78,2.78,0,0,1,3.94-.29Zm1.76-2a5.48,5.48,0,1,1-7.75.58,5.48,5.48,0,0,1,7.75-.58Z" fill="#363f48" fill-rule="evenodd"/>
        </g>
    </g>
</svg>
